<svg version="1.0" xmlns="http://www.w3.org/2000/svg"
 width="1538.000000pt" height="635.000000pt" viewBox="0 0 1538.000000 635.000000"
 preserveAspectRatio="xMidYMid meet">

<g transform="translate(0.000000,635.000000) scale(0.100000,-0.100000)"
fill="#000000" stroke="none">
<path d="M2575 5423 c-182 -14 -414 -65 -557 -122 -43 -17 -122 -53 -175 -80
-844 -424 -1250 -1408 -952 -2306 70 -209 180 -416 314 -586 32 -41 381 -398
776 -794 l719 -720 714 715 714 715 41 85 c124 255 79 532 -119 731 -198 199
-475 242 -740 116 -56 -27 -101 -67 -331 -294 -146 -145 -270 -263 -275 -263
-6 0 -127 118 -270 263 -281 284 -311 323 -350 467 -24 89 -24 255 0 335 52
173 182 330 336 403 111 52 174 66 295 65 170 -1 301 -57 451 -193 84 -76 146
-113 244 -144 100 -32 181 -40 273 -27 217 30 398 161 492 356 37 77 65 196
65 275 0 127 -57 287 -137 388 -60 76 -213 210 -330 289 -128 88 -308 178
-452 228 -224 77 -522 116 -746 98z m363 -328 c281 -42 541 -155 757 -328 170
-137 225 -220 225 -344 0 -105 -26 -168 -99 -235 -133 -123 -310 -119 -452 10
-122 111 -241 183 -372 226 -155 51 -374 58 -532 16 -332 -87 -595 -349 -687
-685 -32 -119 -32 -355 0 -475 30 -108 88 -233 149 -318 26 -37 211 -231 410
-432 l363 -365 362 361 c409 407 408 406 544 406 183 0 314 -136 314 -326 0
-134 14 -118 -639 -770 l-579 -579 -607 609 c-593 596 -668 676 -755 819 -285
465 -308 1066 -59 1554 188 368 513 652 898 785 95 33 247 69 331 79 91 10
338 6 428 -8z"/>
<path d="M11226 5146 c-54 -20 -107 -65 -136 -117 -20 -35 -25 -58 -25 -114 0
-85 28 -142 93 -192 182 -139 435 24 382 246 -25 105 -111 179 -217 187 -36 3
-73 -1 -97 -10z"/>
<path d="M12535 5153 c-162 -22 -313 -121 -378 -249 -48 -94 -59 -150 -64
-320 l-6 -161 -126 -12 c-69 -6 -138 -11 -153 -11 l-28 0 0 -145 0 -145 155 0
155 0 0 -750 0 -750 180 0 180 0 0 750 0 750 238 0 239 0 101 -207 c463 -950
522 -1073 522 -1084 0 -19 -74 -156 -117 -217 -91 -128 -190 -178 -335 -170
l-78 5 -20 -66 c-53 -180 -60 -215 -47 -223 27 -17 128 -32 217 -31 177 1 296
50 421 173 115 113 155 183 347 605 95 209 249 545 556 1218 75 164 136 300
136 302 0 3 -85 5 -189 5 l-188 0 -196 -447 c-107 -247 -223 -514 -258 -595
-35 -82 -66 -148 -69 -148 -3 0 -66 132 -140 292 -74 161 -198 427 -275 592
l-141 301 -362 3 -362 2 0 114 c0 235 62 310 255 311 50 0 115 -4 145 -8 l55
-9 33 119 c18 65 35 128 38 139 5 19 -1 23 -63 38 -126 30 -279 42 -378 29z"/>
<path d="M9190 5094 c-69 -7 -133 -13 -142 -13 -17 -1 -18 -67 -18 -1236 l0
-1235 165 0 165 0 0 85 c0 47 2 85 5 85 3 0 32 -22 65 -48 234 -189 592 -220
887 -77 258 126 431 358 487 655 21 107 21 317 1 415 -44 211 -128 368 -266
501 -113 106 -233 174 -384 216 -118 32 -338 32 -448 0 -100 -29 -197 -78
-281 -142 l-66 -51 0 431 0 430 -22 -1 c-13 -1 -79 -7 -148 -15z m820 -945
c139 -22 286 -120 365 -243 167 -261 133 -662 -74 -866 -147 -146 -346 -196
-536 -136 -96 31 -161 73 -234 152 -109 119 -161 268 -161 458 0 141 19 230
71 335 75 152 212 261 372 296 77 17 115 18 197 4z"/>
<path d="M5770 4450 c-405 -87 -681 -428 -707 -872 -26 -452 217 -835 612
-967 378 -125 788 7 1012 326 l42 60 -145 88 c-80 48 -146 86 -148 84 -1 -2
-13 -20 -26 -39 -39 -59 -122 -139 -180 -175 -169 -103 -393 -99 -556 10 -150
99 -238 253 -264 460 -36 287 95 567 313 675 64 31 176 60 237 60 61 0 165
-27 235 -62 76 -37 190 -141 222 -201 l18 -37 143 86 c78 47 142 90 142 96 0
23 -94 140 -160 200 -210 191 -508 269 -790 208z"/>
<path d="M7605 4456 c-278 -55 -507 -230 -629 -481 -217 -447 -84 -1005 300
-1261 155 -103 306 -147 499 -146 191 0 343 51 488 160 37 29 70 52 73 52 2 0
4 -38 4 -85 l0 -85 165 0 165 0 0 905 0 905 -27 -1 c-16 0 -89 -6 -163 -12
l-135 -12 -3 -72 c-2 -40 -6 -73 -11 -73 -4 0 -16 10 -27 21 -53 59 -207 143
-319 174 -83 22 -291 28 -380 11z m318 -321 c262 -79 420 -336 404 -659 -9
-186 -64 -323 -177 -436 -167 -168 -403 -207 -620 -103 -77 37 -198 160 -238
244 -50 100 -72 205 -72 333 0 140 19 230 69 331 81 162 204 261 376 301 69
16 186 11 258 -11z"/>
<path d="M11275 4405 c-71 -8 -133 -14 -137 -14 -5 -1 -8 -401 -8 -891 l0
-890 175 0 175 0 0 905 0 905 -37 -1 c-21 -1 -96 -7 -168 -14z"/>
</g>
</svg>