<svg version="1.0" xmlns="http://www.w3.org/2000/svg"
 width="3840.000000pt" height="2160.000000pt" viewBox="0 0 3840.000000 2160.000000"
 preserveAspectRatio="xMidYMid meet">

<g transform="translate(0.000000,2160.000000) scale(0.100000,-0.100000)"
fill="#000000" stroke="none">
<path d="M37011 14499 c-38 -9 -4099 -1504 -4281 -1576 -224 -89 -394 -288
-446 -521 -21 -93 -15 -288 11 -372 61 -199 199 -361 380 -451 146 -71 309
-95 460 -66 118 22 4325 1573 4420 1629 217 129 354 377 355 641 0 117 -22
212 -77 326 -38 79 -58 107 -131 180 -98 98 -180 149 -297 188 -67 22 -101 27
-215 29 -74 2 -155 -2 -179 -7z"/>
<path d="M21930 12350 c-771 -73 -1314 -453 -1575 -1100 -129 -319 -190 -748
-165 -1152 21 -348 87 -626 209 -883 260 -546 741 -889 1392 -992 178 -28 589
-25 762 6 638 113 1099 447 1356 981 144 300 207 581 218 975 9 321 -22 600
-93 850 -214 744 -742 1192 -1534 1301 -132 18 -445 26 -570 14z m435 -825
c299 -101 513 -403 610 -865 32 -152 45 -454 26 -616 -58 -492 -250 -845 -536
-984 -217 -106 -491 -90 -686 39 -305 200 -481 629 -482 1171 -1 677 277 1178
709 1274 105 24 258 16 359 -19z"/>
<path d="M11854 12328 c-585 -32 -1116 -251 -1474 -608 -378 -376 -568 -909
-547 -1530 17 -499 153 -899 417 -1230 324 -407 853 -672 1500 -752 65 -8 213
-13 390 -12 234 0 314 4 446 22 186 25 394 67 558 112 l116 32 0 32 c-1 68
-57 817 -62 821 -3 3 -40 -11 -83 -31 -164 -76 -388 -136 -610 -165 -136 -17
-455 -6 -580 21 -471 101 -793 370 -918 766 -50 158 -62 244 -61 454 0 212 18
339 69 490 160 470 545 739 1110 775 275 18 649 -63 925 -199 63 -31 116 -54
118 -51 3 2 22 190 42 417 33 359 35 415 23 425 -8 6 -72 30 -141 52 -408 129
-821 183 -1238 159z"/>
<path d="M15125 12324 c-145 -15 -306 -40 -405 -64 -501 -123 -837 -383 -971
-751 -43 -118 -60 -207 -66 -350 -19 -422 134 -742 458 -959 175 -116 316
-176 754 -319 320 -104 458 -166 532 -238 73 -72 88 -110 88 -223 0 -89 -2
-99 -34 -158 -57 -104 -155 -173 -310 -214 -97 -26 -372 -36 -517 -19 -230 27
-500 96 -721 185 -73 29 -133 52 -133 51 0 -1 -16 -179 -35 -396 -19 -217 -35
-411 -35 -431 0 -36 1 -37 58 -53 203 -60 528 -120 787 -146 158 -16 552 -17
690 -1 736 85 1183 411 1310 957 39 172 44 428 10 601 -66 345 -264 588 -610
750 -119 55 -278 110 -536 184 -329 95 -414 128 -520 202 -72 50 -115 110
-135 188 -45 177 66 326 296 394 321 96 884 35 1213 -131 27 -13 52 -22 55
-19 3 3 20 185 38 403 25 293 31 399 22 404 -6 4 -86 25 -177 48 -316 77 -504
101 -821 105 -135 2 -263 2 -285 0z"/>
<path d="M18331 12320 c-653 -63 -1130 -339 -1312 -760 -69 -161 -84 -240 -84
-455 0 -150 4 -207 19 -270 86 -370 301 -605 716 -783 69 -30 273 -103 454
-163 386 -127 475 -168 563 -254 93 -93 114 -185 73 -319 -40 -128 -154 -219
-335 -267 -113 -31 -374 -37 -552 -15 -230 30 -520 108 -726 196 -85 37 -87
37 -92 16 -7 -33 -75 -839 -71 -843 9 -9 326 -85 446 -107 931 -171 1708 -39
2106 359 198 198 298 431 324 754 36 458 -116 813 -442 1031 -164 110 -321
174 -690 280 -397 115 -511 163 -604 255 -136 135 -123 340 29 451 134 99 331
140 622 131 187 -6 336 -28 507 -76 89 -26 142 -46 305 -117 14 -7 15 1 57
453 l32 352 -110 30 c-140 39 -374 85 -536 106 -146 20 -559 28 -699 15z"/>
<path d="M37095 12299 c-38 -4 -90 -12 -114 -19 -92 -24 -4298 -1582 -4341
-1607 -235 -137 -370 -369 -370 -637 0 -129 20 -220 69 -321 98 -204 264 -342
481 -401 93 -26 291 -24 380 3 105 32 4248 1561 4304 1589 243 119 406 384
406 661 0 447 -366 776 -815 732z"/>
<path d="M490 10255 l0 -1985 1528 0 c841 0 1531 2 1533 4 2 2 3 191 1 420
l-2 416 -995 0 -995 0 0 365 0 365 940 0 940 0 0 430 0 430 -940 0 -940 0 0
355 0 355 980 0 980 0 -2 413 -3 412 -1512 3 -1513 2 0 -1985z"/>
<path d="M4307 12233 c-8 -7 -10 -3935 -2 -3955 4 -11 96 -13 503 -11 273 1
509 2 525 2 l27 1 0 744 0 744 22 6 c25 6 391 -2 475 -10 110 -11 223 -95 284
-210 15 -27 120 -321 234 -654 114 -333 211 -609 215 -614 9 -9 1127 -12 1136
-3 3 2 -78 233 -179 513 -102 280 -231 637 -287 794 -56 157 -118 317 -138
355 -43 84 -173 220 -245 257 l-48 24 93 37 c379 150 561 414 585 845 24 452
-167 793 -552 985 -153 76 -354 129 -560 146 -132 12 -2077 15 -2088 4z m1745
-797 c182 -33 319 -154 362 -321 65 -249 -81 -477 -346 -540 -49 -11 -136 -15
-395 -15 l-333 0 0 445 0 445 318 0 c223 -1 340 -5 394 -14z"/>
<path d="M8230 10255 c0 -1758 2 -1985 15 -1986 8 0 238 0 510 0 272 0 509 0
525 0 l30 1 0 1985 0 1985 -540 0 -540 0 0 -1985z"/>
<path d="M24640 10255 l0 -1985 45 -1 c25 0 236 0 470 0 234 0 438 0 455 0
l30 1 2 1296 3 1296 684 -1296 c610 -1156 686 -1296 707 -1297 13 0 294 0 624
0 330 0 611 0 625 0 l25 1 -2 1983 -3 1982 -497 3 -498 2 0 -1277 c0 -702 -3
-1273 -7 -1269 -4 4 -131 251 -283 549 -151 299 -441 870 -645 1270 l-370 727
-682 0 -683 0 0 -1985z"/>
<path d="M37005 10080 c-112 -29 -4293 -1568 -4370 -1608 -48 -25 -97 -63
-156 -122 -73 -72 -94 -101 -132 -180 -26 -52 -53 -126 -62 -163 -20 -87 -20
-255 -1 -341 59 -254 235 -452 477 -538 170 -60 333 -58 517 7 454 160 4232
1568 4278 1596 83 48 211 180 257 264 65 117 89 204 94 335 6 142 -11 233 -66
345 -76 158 -180 266 -333 345 -151 79 -345 102 -503 60z"/>
</g>
</svg>