<svg version="1.0" xmlns="http://www.w3.org/2000/svg"
 width="267.000000pt" height="300.000000pt" viewBox="0 0 267.000000 300.000000"
 preserveAspectRatio="xMidYMid meet">

<g transform="translate(0.000000,300.000000) scale(0.100000,-0.100000)"
fill="#000000" stroke="none">
<path d="M1296 2971 c-27 -28 -30 -61 -6 -61 15 0 12 -42 -5 -64 -8 -11 -15
-30 -15 -43 0 -21 -2 -22 -21 -11 -17 11 -22 10 -32 -4 -9 -11 -22 -14 -40
-11 -19 4 -29 1 -33 -11 -3 -9 -17 -16 -30 -16 -14 0 -27 -7 -30 -15 -4 -8
-12 -15 -19 -15 -8 0 -21 -7 -30 -16 -12 -13 -19 -14 -30 -4 -20 16 -45 5 -45
-20 0 -17 -3 -18 -19 -9 -24 16 -51 5 -51 -21 0 -16 -5 -19 -23 -15 -27 7 -52
-16 -43 -40 3 -10 -1 -15 -14 -15 -24 0 -53 -29 -46 -46 3 -8 8 -20 11 -27 3
-6 -5 -17 -17 -22 -34 -15 -36 -61 -5 -94 14 -14 27 -39 29 -55 2 -19 12 -35
29 -45 14 -9 38 -25 54 -35 24 -17 32 -18 68 -8 168 49 241 63 347 68 134 7
272 -11 395 -50 98 -31 99 -31 138 -3 17 12 41 27 52 32 12 6 21 23 23 40 2
16 15 42 28 58 30 36 29 78 -3 92 -17 7 -21 15 -16 37 6 33 -11 58 -39 58 -13
0 -18 5 -15 14 9 23 -17 50 -42 43 -16 -4 -21 -1 -21 14 0 25 -27 36 -51 20
-16 -9 -19 -8 -19 8 0 23 -28 35 -45 21 -9 -8 -23 -5 -49 11 -20 11 -36 25
-36 30 0 5 -11 9 -25 9 -14 0 -28 7 -32 16 -4 12 -14 14 -34 10 -16 -3 -29 -2
-29 3 0 15 -32 22 -46 10 -11 -9 -14 -7 -14 13 0 14 -9 37 -20 51 -11 14 -20
30 -20 36 0 6 9 15 20 21 11 6 20 16 20 23 0 14 -53 67 -67 67 -5 0 -22 -13
-37 -29z m54 -6 c0 -8 7 -15 15 -15 8 0 15 -5 15 -10 0 -6 -7 -13 -15 -16 -9
-4 -15 -19 -15 -35 0 -19 -5 -29 -15 -29 -10 0 -15 10 -15 30 0 20 -5 30 -15
30 -8 0 -15 7 -15 15 0 8 7 15 15 15 8 0 15 7 15 15 0 8 7 15 15 15 8 0 15 -7
15 -15z m-25 -136 c-4 -5 -13 -9 -22 -9 -13 0 -13 3 -3 15 13 15 35 11 25 -6z
m51 -7 c-9 -9 -37 8 -31 18 5 8 11 7 21 -1 8 -6 12 -14 10 -17z m-66 -32 c0
-5 -4 -10 -10 -10 -5 0 -10 5 -10 10 0 6 5 10 10 10 6 0 10 -4 10 -10z m34
-11 c-3 -5 -10 -7 -15 -3 -5 3 -7 10 -3 15 3 5 10 7 15 3 5 -3 7 -10 3 -15z
m36 11 c0 -5 -4 -10 -10 -10 -5 0 -10 5 -10 10 0 6 5 10 10 10 6 0 10 -4 10
-10z m-130 -20 c0 -5 -7 -10 -15 -10 -8 0 -15 5 -15 10 0 6 7 10 15 10 8 0 15
-4 15 -10z m190 0 c0 -5 -4 -10 -10 -10 -5 0 -10 5 -10 10 0 6 5 10 10 10 6 0
10 -4 10 -10z m-264 -27 c-10 -10 -19 5 -10 18 6 11 8 11 12 0 2 -7 1 -15 -2
-18z m334 6 c0 -5 -7 -9 -15 -9 -15 0 -20 12 -9 23 8 8 24 -1 24 -14z m-160
-4 c0 -8 -7 -15 -15 -15 -8 0 -15 7 -15 15 0 8 7 15 15 15 8 0 15 -7 15 -15z
m-225 -23 c0 -18 -20 -15 -23 4 -3 10 1 15 10 12 7 -3 13 -10 13 -16z m171 -4
c-4 -13 -11 -65 -17 -116 -8 -69 -8 -96 1 -107 9 -11 5 -16 -17 -27 -40 -19
-44 -63 -8 -80 21 -9 31 -9 46 0 16 11 19 9 19 -8 0 -32 -45 -48 -79 -29 -25
15 -29 15 -50 -2 -27 -22 -61 -25 -79 -7 -20 20 -14 36 13 30 31 -5 55 13 55
42 0 27 -18 46 -42 46 -23 0 -36 27 -44 92 -13 108 58 184 175 187 30 1 33 -1
27 -21z m179 3 c51 -23 91 -69 99 -116 10 -51 -18 -145 -43 -145 -10 0 -26 -9
-36 -20 -15 -17 -16 -24 -6 -46 10 -22 17 -26 46 -22 38 4 43 -2 19 -26 -21
-22 -57 -20 -79 4 -16 18 -19 18 -41 3 -29 -19 -69 -11 -85 18 -13 25 -5 36
16 19 8 -7 25 -10 39 -6 45 11 45 69 -1 87 -21 8 -23 12 -13 25 10 12 11 35 1
115 -7 56 -15 107 -18 115 -8 21 53 18 102 -5z m90 1 c0 -18 -20 -15 -23 4 -3
10 1 15 10 12 7 -3 13 -10 13 -16z m-207 -25 c4 -20 -25 -34 -40 -19 -15 15
-1 44 19 40 10 -2 19 -11 21 -21z m-275 -11 c8 -20 -20 -43 -35 -28 -14 14 -3
42 16 42 7 0 16 -6 19 -14z m545 -9 c4 -20 -25 -34 -40 -19 -15 15 -1 44 19
40 10 -2 19 -11 21 -21z m-628 3 c0 -5 -4 -10 -10 -10 -5 0 -10 5 -10 10 0 6
5 10 10 10 6 0 10 -4 10 -10z m690 0 c0 -5 -4 -10 -10 -10 -5 0 -10 5 -10 10
0 6 5 10 10 10 6 0 10 -4 10 -10z m-760 -28 c0 -13 -12 -22 -22 -16 -10 6 -1
24 13 24 5 0 9 -4 9 -8z m429 -6 c17 -20 2 -46 -25 -46 -29 0 -41 24 -24 45
16 19 34 19 49 1z m399 3 c-2 -6 -8 -10 -13 -10 -5 0 -11 4 -13 10 -2 6 4 11
13 11 9 0 15 -5 13 -11z m-763 -46 c-1 -27 -5 -59 -9 -72 -6 -17 -2 -31 15
-54 l22 -31 -21 -14 c-30 -20 -30 -70 1 -81 24 -9 48 -4 59 13 13 20 21 -4 9
-30 -10 -24 -16 -26 -59 -22 -40 3 -50 0 -65 -19 -20 -25 -56 -30 -75 -11 -17
17 -15 31 4 24 27 -10 54 12 54 44 0 33 -29 55 -59 45 -49 -15 -54 85 -7 155
15 22 49 53 79 70 28 16 52 30 52 30 0 0 0 -21 0 -47z m726 18 c56 -36 84 -67
104 -113 29 -71 14 -124 -32 -112 -21 6 -63 -25 -63 -46 0 -21 41 -51 61 -45
21 7 25 -5 7 -23 -19 -19 -53 -14 -77 12 -19 20 -29 23 -62 19 -43 -6 -69 8
-69 38 0 18 1 19 25 3 23 -15 27 -15 50 0 36 24 32 60 -9 83 -18 10 -18 11 1
29 29 27 33 48 18 78 -8 15 -10 28 -4 31 13 9 11 49 -3 63 -22 22 7 13 53 -17z
m-664 -25 c-4 -9 -16 -16 -27 -16 -29 0 -38 30 -15 47 16 11 21 11 33 -1 8 -8
12 -22 9 -30z m603 8 c0 -19 -5 -24 -24 -24 -29 0 -40 24 -20 44 20 20 44 9
44 -20z m-787 1 c1 -5 -6 -11 -15 -13 -11 -2 -18 3 -18 13 0 17 30 18 33 0z
m957 -1 c0 -9 -7 -14 -17 -12 -25 5 -28 28 -4 28 12 0 21 -6 21 -16z m-461
-42 c5 -10 7 -23 3 -29 -8 -13 -64 -12 -74 1 -12 17 12 46 37 46 13 0 29 -8
34 -18z m-539 -22 c0 -24 -26 -38 -42 -22 -16 16 -2 42 22 42 13 0 20 -7 20
-20z m248 -18 c4 -13 -55 -45 -68 -37 -16 10 -11 53 8 64 18 10 52 -5 60 -27z
m806 29 c9 -13 -4 -41 -18 -41 -18 0 -35 21 -29 36 6 16 39 19 47 5z m-219
-22 c5 -13 1 -27 -8 -36 -12 -13 -18 -13 -38 -1 -13 7 -26 14 -27 15 -2 1 -1
11 3 22 9 29 61 29 70 0z m-867 -61 c30 -30 -12 -74 -45 -46 -17 14 -16 23 3
42 19 19 26 20 42 4z m1110 0 c14 -14 16 -44 3 -52 -12 -8 -61 11 -61 23 0 11
28 41 39 41 4 0 12 -5 19 -12z m-544 -14 c7 -19 -10 -44 -29 -44 -19 0 -36 25
-29 44 3 9 16 16 29 16 13 0 26 -7 29 -16z m-270 -10 c21 -8 20 -41 -1 -52
-26 -13 -43 -4 -43 22 0 34 12 42 44 30z m524 -25 c4 -30 -22 -46 -44 -28 -17
14 -18 31 -2 47 19 19 43 9 46 -19z m-764 -71 c8 -14 7 -21 -6 -34 -30 -30
-75 9 -48 42 16 18 39 15 54 -8z m1020 0 c8 -14 7 -21 -6 -34 -30 -30 -75 9
-48 42 16 18 39 15 54 -8z"/>
<path d="M501 2279 c-20 -19 -23 -29 -19 -70 l5 -47 -25 16 c-24 15 -26 15
-49 -12 -24 -28 -25 -43 -7 -89 4 -11 -2 -16 -18 -19 -18 -2 -24 -10 -26 -34
-2 -19 3 -36 12 -44 9 -7 16 -18 16 -26 0 -19 86 -30 106 -14 8 7 13 19 10 27
-5 11 2 12 28 8 58 -11 98 29 64 63 -16 16 5 16 34 1 43 -23 97 17 83 61 -4
11 -17 23 -31 26 -30 8 -31 24 -1 24 65 0 91 77 42 125 -34 35 -62 31 -101
-12 -33 -36 -34 -36 -34 -12 0 50 -49 65 -89 28z m61 -41 c4 -48 38 -50 73 -4
41 54 90 42 83 -21 -2 -21 -9 -29 -34 -34 -43 -8 -54 -17 -54 -40 0 -14 10
-25 30 -32 19 -7 29 -18 28 -27 -4 -15 -20 -16 -89 -4 -45 7 -57 -7 -35 -41 9
-13 16 -27 16 -30 0 -3 -24 -4 -52 -3 -49 3 -53 1 -52 -19 0 -16 -5 -23 -17
-23 -10 0 -20 4 -23 8 -7 11 120 148 187 202 31 24 54 46 52 48 -9 9 -146
-101 -205 -165 -59 -63 -63 -66 -77 -47 -13 17 -12 19 11 22 31 4 39 26 25 69
-8 26 -8 37 2 49 10 13 14 13 29 -1 40 -36 68 -6 50 55 -8 27 -6 37 7 52 24
27 41 22 45 -14z"/>
<path d="M1945 2275 c-49 -48 -23 -125 42 -125 32 0 29 -14 -7 -27 -36 -14
-40 -43 -9 -74 21 -21 28 -21 89 -3 21 5 23 4 13 -7 -35 -36 4 -76 63 -64 26
4 33 3 28 -8 -8 -23 19 -36 69 -34 30 1 47 7 47 15 0 7 7 24 16 37 22 33 15
69 -14 73 -16 3 -22 8 -18 19 19 48 17 63 -8 88 -25 25 -28 26 -51 11 l-24
-16 6 49 c5 41 2 51 -18 69 -40 38 -89 24 -89 -25 0 -13 -4 -23 -10 -23 -5 0
-10 5 -10 10 0 19 -48 60 -70 60 -11 0 -32 -11 -45 -25z m83 -35 c17 -31 52
-48 71 -35 6 3 11 19 11 36 0 18 5 29 14 29 26 0 39 -29 33 -71 -3 -23 -3 -48
0 -55 7 -18 32 -18 53 1 15 14 19 14 29 1 10 -12 10 -23 2 -49 -14 -43 -6 -65
25 -69 23 -3 24 -5 11 -22 -14 -19 -17 -17 -71 41 -55 60 -202 180 -210 172
-2 -2 28 -32 68 -66 81 -69 179 -177 169 -187 -15 -15 -40 -5 -39 17 1 20 -3
22 -51 19 -29 -1 -53 0 -53 3 0 3 7 16 15 28 21 33 5 51 -36 43 -64 -13 -83
-12 -87 5 -2 11 7 20 27 27 53 19 32 72 -28 72 -23 0 -41 27 -33 50 16 49 55
53 80 10z"/>
<path d="M1270 2283 c-77 -6 -172 -23 -245 -45 -38 -11 -76 -21 -84 -23 -8 -1
-18 -11 -22 -23 -12 -32 25 -56 55 -37 53 35 311 83 346 64 9 -4 22 -4 30 1
35 18 316 -34 351 -66 14 -13 19 -12 37 3 16 14 18 23 12 41 -5 12 -16 22 -25
22 -8 0 -52 11 -97 24 -100 29 -264 47 -358 39z m95 -22 c9 -16 -28 -31 -49
-19 -15 8 -16 12 -5 19 19 12 46 11 54 0z m-198 -18 c5 -15 -44 -36 -64 -29
-20 8 -16 26 10 36 28 11 49 9 54 -7z m407 -3 c16 -15 -5 -32 -33 -25 -33 8
-45 20 -36 35 7 12 53 6 69 -10z m-604 -50 c0 -12 -28 -25 -36 -17 -9 9 6 27
22 27 8 0 14 -5 14 -10z m768 -8 c3 -9 -2 -13 -14 -10 -9 1 -19 9 -22 16 -3 9
2 13 14 10 9 -1 19 -9 22 -16z"/>
<path d="M1170 2174 c-65 -13 -186 -46 -194 -54 -19 -19 1 -18 82 6 170 49
384 49 553 0 46 -14 86 -22 88 -20 10 10 -19 24 -94 45 -64 17 -113 22 -245
24 -91 2 -176 1 -190 -1z"/>
<path d="M245 2030 c-11 -13 -15 -32 -13 -65 3 -50 7 -54 64 -72 29 -9 31 -8
42 28 11 34 9 42 -11 73 -30 47 -60 60 -82 36z m43 -22 c16 -16 15 -45 -2 -51
-17 -7 -36 11 -36 33 0 30 18 38 38 18z m22 -78 c-8 -6 -22 -10 -30 -9 -9 0
-5 6 10 14 27 14 44 10 20 -5z"/>
<path d="M2351 2001 c-30 -38 -31 -41 -19 -79 11 -38 13 -38 42 -29 57 18 61
22 64 71 6 84 -36 101 -87 37z m64 -1 c8 -25 -11 -51 -31 -43 -17 6 -18 35 -2
51 17 17 26 15 33 -8z m-25 -70 c13 -9 13 -10 0 -10 -8 0 -22 5 -30 10 -13 9
-13 10 0 10 8 0 22 -5 30 -10z"/>
<path d="M411 1899 c-11 -5 -21 -13 -21 -19 0 -5 -7 -10 -16 -10 -17 0 -17 -1
11 -47 22 -37 46 -41 99 -19 40 17 49 29 41 55 -7 24 -84 50 -114 40z m9 -56
c0 -21 -3 -24 -9 -14 -5 8 -7 20 -4 28 8 21 13 15 13 -14z m80 12 c10 -12 7
-17 -14 -26 -31 -14 -53 -1 -43 25 8 20 41 21 57 1z"/>
<path d="M2190 1891 c-76 -28 -58 -83 32 -97 30 -5 37 -2 61 29 32 42 32 43
10 50 -10 4 -27 13 -38 20 -17 12 -26 12 -65 -2z m37 -37 c10 -26 -12 -39 -43
-25 -21 9 -24 14 -14 26 16 20 49 19 57 -1z m36 3 c3 -8 1 -20 -4 -28 -6 -10
-9 -7 -9 14 0 29 5 35 13 14z"/>
<path d="M263 1849 c-26 -9 -43 -38 -43 -73 0 -32 -6 -33 -29 -4 -23 27 -63
19 -79 -17 -17 -37 -15 -50 13 -83 31 -37 31 -44 1 -36 -18 4 -27 1 -35 -14
-17 -32 -13 -54 17 -85 25 -26 26 -29 10 -38 -34 -19 -14 -65 35 -82 9 -4 17
-11 17 -17 0 -7 5 -8 13 -3 6 4 28 13 47 19 30 9 35 14 34 40 -1 26 3 33 32
43 43 16 54 48 24 73 -23 19 -18 24 30 30 14 2 31 14 40 30 21 38 5 62 -44 66
l-37 3 31 29 c16 15 30 36 30 47 0 46 -63 89 -107 72z m55 -35 c29 -20 28 -50
-2 -69 -52 -34 -43 -75 16 -75 32 0 39 -3 36 -17 -3 -17 -23 -26 -80 -38 -37
-7 -38 -42 -2 -55 22 -9 24 -13 14 -25 -7 -8 -20 -15 -29 -15 -10 0 -26 -6
-37 -14 -16 -12 -17 -18 -7 -34 13 -22 8 -32 -17 -32 -16 0 -16 5 -4 63 7 34
28 107 48 162 19 55 33 101 31 103 -13 13 -85 -173 -105 -270 -10 -53 -13 -57
-31 -48 -23 13 -25 26 -4 34 23 8 18 40 -10 66 -37 35 -33 61 7 58 29 -3 33 0
36 22 2 17 -6 34 -23 50 -29 27 -32 52 -9 71 14 11 19 9 36 -14 11 -15 23 -27
28 -27 19 0 40 33 40 64 0 53 27 69 68 40z"/>
<path d="M2352 1845 c-55 -24 -67 -71 -27 -111 14 -14 25 -27 25 -29 0 -2 -14
-5 -31 -7 -18 -2 -37 -11 -43 -21 -16 -24 12 -71 44 -75 46 -6 57 -13 33 -23
-42 -16 -21 -72 32 -85 18 -4 22 -12 21 -37 -1 -27 3 -32 34 -41 19 -6 41 -15
48 -19 6 -5 12 -4 12 1 0 6 16 19 35 31 38 22 46 54 18 69 -15 9 -14 13 10 42
30 35 34 57 13 85 -8 12 -20 16 -35 12 -26 -6 -27 1 -2 27 31 34 35 68 11 99
-27 34 -53 34 -79 0 l-20 -28 -1 35 c0 67 -42 98 -98 75z m49 -25 c13 -7 19
-21 19 -45 0 -31 21 -65 40 -65 5 0 17 12 28 27 17 23 22 25 36 14 23 -19 20
-33 -14 -76 -24 -30 -28 -41 -19 -57 8 -15 17 -18 40 -13 24 6 29 3 29 -12 0
-11 -11 -30 -25 -43 -28 -26 -34 -70 -10 -70 21 0 19 -17 -4 -30 -18 -9 -21
-5 -31 46 -19 91 -96 292 -107 280 -2 -2 14 -57 36 -123 23 -65 44 -140 47
-166 6 -43 5 -47 -15 -47 -23 0 -27 10 -10 27 19 19 2 41 -40 53 -47 12 -52
26 -16 42 34 15 33 46 -2 53 -58 12 -78 21 -81 37 -2 13 6 17 35 20 33 3 38 7
41 29 2 19 -4 31 -22 43 -32 20 -33 50 -4 70 27 19 24 19 49 6z"/>
<path d="M590 1745 c0 -3 15 -11 33 -19 l34 -14 6 -96 c8 -116 -2 -283 -17
-295 -6 -4 -24 -13 -41 -19 -24 -8 -7 -10 90 -11 92 0 114 3 95 11 -51 21 -55
26 -62 74 -8 64 -8 282 1 314 4 14 17 30 29 36 43 21 35 24 -66 24 -56 0 -102
-2 -102 -5z"/>
<path d="M868 1738 c38 -19 28 -39 -70 -147 -32 -36 -57 -68 -56 -72 7 -19
175 -194 202 -210 19 -12 50 -19 80 -19 l49 0 -42 23 c-24 12 -85 70 -141 132
l-100 110 73 73 c39 41 91 83 115 94 23 10 42 21 42 23 0 3 -39 5 -87 4 -71 0
-84 -2 -65 -11z"/>
<path d="M1085 1695 c-9 -68 -2 -78 20 -32 20 43 71 69 123 65 l37 -3 3 -163
c3 -206 -4 -235 -61 -255 -41 -15 -40 -15 88 -15 128 0 129 0 87 15 -31 11
-44 22 -49 41 -4 15 -8 106 -8 202 l0 175 30 3 c56 7 102 -15 130 -61 l25 -42
0 31 c0 17 -3 46 -6 63 l-6 31 -204 0 -203 0 -6 -55z"/>
<path d="M1600 1733 c19 -8 38 -20 42 -27 4 -6 8 -90 8 -186 0 -96 -4 -180 -8
-186 -4 -7 -23 -19 -42 -27 -34 -15 -31 -15 85 -16 81 0 115 2 105 9 -8 5 -23
10 -32 10 -32 0 -48 40 -48 122 l0 78 125 0 125 0 0 -90 0 -91 -42 -19 -43
-19 115 1 c107 0 113 1 83 14 -18 7 -37 22 -43 33 -6 11 -10 89 -10 183 0 174
8 208 50 208 10 0 22 5 25 10 4 6 -34 10 -106 10 -112 0 -126 -5 -66 -25 l32
-10 3 -87 3 -88 -126 0 -125 0 0 69 c0 89 5 99 54 121 l41 19 -120 -1 c-116 0
-119 0 -85 -15z"/>
<path d="M28 1423 c-26 -6 -29 -31 -8 -77 23 -52 39 -60 91 -43 34 10 53 27
31 27 -4 0 -8 12 -7 26 0 20 -8 31 -30 44 -40 22 -57 27 -77 23z m52 -38 c11
-13 10 -18 -6 -29 -22 -17 -44 -4 -44 25 0 23 32 25 50 4z m25 -54 c-3 -6 -11
-11 -17 -11 -6 0 -6 6 2 15 14 17 26 13 15 -4z"/>
<path d="M2572 1405 c-33 -18 -39 -26 -45 -60 -5 -28 -3 -31 33 -43 22 -6 46
-9 55 -6 20 8 54 82 48 105 -6 22 -55 24 -91 4z m68 -24 c0 -10 -7 -24 -16
-31 -12 -11 -18 -10 -31 3 -13 13 -14 19 -3 31 18 22 50 20 50 -3z m-65 -41
c10 -11 13 -20 7 -20 -6 0 -16 9 -22 20 -6 11 -9 20 -7 20 2 0 12 -9 22 -20z"/>
<path d="M247 1393 c-20 -3 -32 -15 -46 -43 l-19 -40 31 -15 c45 -22 67 -19
99 17 39 44 36 82 -7 84 -16 1 -42 -1 -58 -3z m68 -24 c7 -10 -21 -49 -36 -49
-15 0 -21 42 -8 51 19 12 36 11 44 -2z m-68 -44 c6 -14 7 -23 2 -19 -13 8 -31
44 -22 44 4 0 13 -11 20 -25z"/>
<path d="M2337 1393 c-26 -26 26 -113 67 -113 13 0 37 7 53 15 l31 15 -19 39
c-15 32 -25 39 -56 45 -49 8 -68 8 -76 -1z m62 -22 c8 -5 11 -16 6 -30 -8 -26
-17 -26 -39 -2 -27 30 -2 54 33 32z m35 -55 c-3 -9 -10 -16 -15 -16 -6 0 -5 9
1 21 13 24 24 20 14 -5z"/>
<path d="M121 1264 c-18 -13 -22 -23 -19 -53 3 -20 9 -45 13 -55 7 -17 6 -18
-11 -12 -44 18 -53 17 -69 -8 -25 -38 -9 -76 44 -102 l42 -20 -25 -12 c-16 -7
-26 -20 -26 -32 0 -27 43 -70 69 -70 17 0 20 -5 15 -29 -7 -34 3 -42 63 -51
31 -5 43 -3 43 6 0 6 6 14 14 17 8 3 23 18 32 33 17 26 17 27 -4 44 l-21 17
24 23 c14 13 25 34 25 46 0 24 -26 44 -47 37 -7 -3 -13 0 -13 6 0 6 5 11 10
11 19 0 50 40 50 63 0 13 -9 32 -20 42 -18 16 -23 17 -48 4 -15 -7 -31 -15
-35 -17 -5 -3 -4 5 2 16 6 11 11 34 11 51 0 54 -69 80 -119 45z m87 -31 c5
-10 6 -27 1 -38 -24 -60 2 -90 52 -61 28 16 30 16 36 0 5 -13 -4 -27 -31 -50
-47 -40 -46 -70 2 -68 39 2 41 -14 7 -46 -30 -29 -32 -58 -4 -68 19 -7 19 -9
4 -22 -9 -8 -19 -9 -24 -4 -16 16 -49 139 -62 225 -14 95 -34 135 -24 49 13
-112 28 -196 46 -247 l18 -53 -26 0 c-20 0 -24 4 -18 18 14 35 13 36 -65 72
-25 12 -24 38 2 42 15 2 24 11 26 25 3 18 -6 27 -45 45 -48 23 -65 50 -44 71
8 8 14 8 23 -1 17 -17 58 -15 65 4 3 8 -2 33 -12 54 -15 32 -15 42 -5 55 17
21 67 19 78 -2z"/>
<path d="M2451 1264 c-21 -15 -23 -22 -18 -66 l6 -49 -29 18 c-28 16 -30 16
-50 -2 -29 -27 -25 -61 13 -97 17 -17 25 -28 17 -25 -24 7 -50 -12 -50 -37 0
-12 11 -33 25 -46 24 -23 24 -23 5 -37 -27 -19 -26 -25 13 -70 30 -35 35 -38
72 -33 57 8 68 17 61 51 -5 24 -2 29 15 29 26 0 69 43 69 70 0 13 -10 24 -27
31 l-28 11 43 19 c51 22 69 57 49 97 -13 28 -34 32 -71 17 -17 -7 -18 -6 -11
11 4 10 10 35 13 55 3 30 -1 40 -19 53 -30 21 -68 20 -98 0z m88 -28 c8 -10 7
-25 -6 -59 -22 -60 -10 -78 39 -59 69 26 61 -39 -9 -69 -36 -15 -44 -23 -41
-41 2 -15 11 -24 26 -26 44 -7 21 -44 -35 -56 -34 -8 -46 -25 -32 -47 14 -23
11 -29 -17 -29 -21 0 -25 3 -19 18 20 46 44 147 50 209 3 37 9 82 12 98 3 19
2 26 -4 20 -5 -5 -17 -53 -26 -105 -9 -53 -26 -126 -37 -164 -21 -67 -22 -68
-41 -50 -20 18 -20 18 0 26 28 10 26 39 -4 68 -29 27 -34 56 -9 46 25 -10 54
3 54 24 0 10 -15 28 -35 40 -52 32 -47 84 5 53 48 -28 78 6 50 58 -24 43 47
84 79 45z"/>
<path d="M610 1121 c0 -5 11 -37 24 -72 34 -92 53 -91 88 6 22 64 24 76 11 73
-9 -2 -23 -24 -32 -50 -9 -26 -19 -49 -22 -52 -3 -3 -13 19 -23 49 -10 33 -23
55 -32 55 -7 0 -14 -4 -14 -9z"/>
<path d="M800 1055 l0 -75 50 0 c55 0 69 17 18 22 -25 2 -34 8 -36 26 -3 19 1
22 27 22 17 0 31 5 31 10 0 6 -13 10 -30 10 -23 0 -30 4 -30 20 0 16 7 20 35
20 19 0 35 5 35 10 0 6 -22 10 -50 10 l-50 0 0 -75z"/>
<path d="M950 1120 c0 -5 9 -10 20 -10 18 0 20 -7 20 -65 0 -50 3 -65 15 -65
10 0 15 16 17 63 3 56 5 62 26 65 46 7 20 22 -38 22 -33 0 -60 -4 -60 -10z"/>
<path d="M1120 1055 l0 -75 50 0 c55 0 69 17 18 22 -25 2 -34 8 -36 26 -3 19
1 22 27 22 17 0 31 5 31 10 0 6 -13 10 -30 10 -23 0 -30 4 -30 20 0 16 7 20
35 20 19 0 35 5 35 10 0 6 -22 10 -50 10 l-50 0 0 -75z"/>
<path d="M1280 1055 c0 -60 3 -75 15 -75 12 0 15 13 15 55 0 30 4 55 8 55 5 0
19 -25 31 -55 19 -45 27 -55 47 -55 23 0 24 2 24 75 0 60 -3 75 -15 75 -11 0
-15 -13 -16 -57 l-1 -58 -26 57 c-23 49 -31 57 -54 58 l-28 0 0 -75z"/>
<path d="M1492 1118 c-25 -25 -14 -54 29 -71 25 -10 39 -21 37 -29 -7 -20 -40
-22 -50 -4 -8 15 -38 23 -38 10 0 -24 24 -44 53 -44 74 0 94 65 27 86 -19 6
-36 19 -38 28 -4 19 20 21 48 4 24 -15 37 -4 20 17 -15 18 -71 20 -88 3z"/>
<path d="M1648 1055 c3 -57 7 -75 18 -75 10 0 14 12 14 37 l0 38 25 -38 c16
-22 34 -37 46 -37 19 0 19 3 -10 41 l-30 42 26 33 c21 28 22 34 9 34 -9 0 -28
-12 -41 -27 l-24 -28 -1 28 c0 19 -5 27 -17 27 -16 0 -18 -9 -15 -75z"/>
<path d="M1830 1068 c-12 -35 -25 -69 -27 -75 -3 -7 2 -13 10 -13 8 0 17 7 21
15 3 9 18 15 36 15 18 0 33 -6 36 -15 6 -15 34 -21 34 -7 0 4 -11 36 -24 72
-33 91 -55 93 -86 8z m50 13 c0 -5 3 -16 6 -25 4 -12 0 -16 -16 -16 -16 0 -20
4 -16 16 3 9 6 20 6 25 0 5 5 9 10 9 6 0 10 -4 10 -9z"/>
<path d="M1990 1055 c0 -60 3 -75 15 -75 10 0 15 10 15 28 0 23 6 30 33 37 22
7 33 17 35 33 5 34 -15 52 -59 52 l-39 0 0 -75z m65 30 c0 -11 -8 -21 -17 -23
-14 -3 -18 3 -18 23 0 20 4 26 18 23 9 -2 17 -12 17 -23z"/>
<path d="M365 878 c-46 -26 -65 -54 -63 -95 l1 -40 43 2 c24 2 47 6 53 9 16
10 24 105 11 121 -15 18 -19 18 -45 3z m30 -28 c9 -14 -4 -50 -18 -50 -7 0
-19 4 -27 10 -12 7 -12 12 4 29 21 23 32 26 41 11z m-29 -78 c-7 -7 -46 9 -46
18 0 5 11 4 25 -2 14 -6 23 -13 21 -16z"/>
<path d="M640 860 c-23 -23 -27 -86 -7 -113 6 -9 26 -20 44 -23 42 -8 83 30
83 78 0 39 -7 51 -37 67 -32 16 -60 14 -83 -9z m74 -16 c26 -26 19 -77 -14
-94 -38 -20 -65 43 -40 91 13 23 33 24 54 3z"/>
<path d="M832 864 c-46 -32 -19 -144 36 -144 21 0 62 27 62 41 0 15 -22 11
-43 -8 -18 -17 -19 -17 -33 2 -19 25 -18 79 1 95 13 10 19 10 33 -4 34 -30 58
-14 26 18 -20 20 -53 20 -82 0z"/>
<path d="M987 873 c-4 -3 -7 -37 -7 -75 0 -54 3 -68 15 -68 10 0 15 10 15 30
0 27 3 30 29 30 25 0 30 -4 33 -27 2 -17 10 -29 21 -31 16 -3 18 4 15 70 -2
57 -6 73 -18 73 -9 0 -16 -11 -18 -27 -3 -24 -8 -28 -33 -28 -26 0 -29 3 -29
30 0 29 -9 38 -23 23z"/>
<path d="M1250 878 c-1 -1 -2 -36 -3 -76 -2 -64 0 -72 17 -72 15 0 17 6 14 30
-6 38 6 38 28 1 17 -29 54 -49 54 -29 0 5 -12 25 -26 44 l-27 35 27 27 c30 32
32 42 11 42 -8 0 -25 -14 -37 -31 l-23 -31 -5 28 c-3 15 -11 29 -17 32 -7 2
-13 2 -13 0z"/>
<path d="M1420 860 c-31 -31 -27 -93 6 -119 15 -12 34 -21 44 -21 10 0 29 9
44 21 54 43 24 139 -44 139 -17 0 -39 -9 -50 -20z m74 -16 c17 -16 21 -61 8
-80 -25 -37 -72 -14 -72 36 0 27 22 60 40 60 5 0 16 -7 24 -16z"/>
<path d="M1590 805 c0 -59 3 -75 15 -75 10 0 15 15 17 58 l3 57 26 -56 c17
-36 34 -58 48 -62 29 -7 33 5 29 83 -4 84 -26 94 -30 13 l-3 -58 -30 58 c-23
44 -34 57 -52 57 -22 0 -23 -3 -23 -75z"/>
<path d="M1808 869 c-10 -5 -18 -21 -18 -35 0 -21 8 -29 40 -41 22 -9 40 -22
40 -28 0 -19 -38 -25 -51 -9 -13 16 -39 19 -39 4 0 -5 12 -17 26 -26 19 -13
32 -15 51 -8 59 21 55 71 -6 87 -22 5 -31 13 -29 24 4 23 23 27 42 7 12 -11
21 -13 27 -7 14 14 -16 43 -44 43 -12 0 -30 -5 -39 -11z"/>
<path d="M1947 874 c-10 -11 2 -24 24 -24 17 0 19 -7 19 -60 0 -47 3 -60 15
-60 12 0 15 13 15 59 0 52 3 60 20 63 12 2 21 8 21 13 -1 11 -103 20 -114 9z"/>
<path d="M2255 870 c-9 -15 4 -109 16 -116 6 -3 29 -7 52 -9 l43 -2 1 40 c2
31 -4 46 -25 68 -27 29 -75 39 -87 19z m61 -31 c16 -17 16 -22 4 -29 -22 -14
-37 -12 -44 6 -17 45 7 59 40 23z m24 -54 c-7 -8 -20 -15 -29 -15 -11 1 -8 5
9 15 32 18 35 18 20 0z"/>
<path d="M160 783 c-71 -9 -81 -50 -20 -88 50 -32 61 -31 99 2 34 30 39 43 16
43 -8 0 -15 7 -15 15 0 12 -32 38 -42 33 -2 0 -19 -3 -38 -5z m25 -48 c0 -24
-24 -30 -49 -12 -25 18 -12 39 22 35 19 -2 27 -9 27 -23z m24 -29 c-9 -8 -10
-7 -5 7 3 10 7 24 7 30 1 7 3 4 6 -7 3 -10 -1 -23 -8 -30z"/>
<path d="M2447 778 c-10 -5 -17 -16 -17 -23 0 -8 -7 -15 -15 -15 -21 0 -19 -7
15 -40 36 -36 48 -37 94 -9 40 23 55 55 35 74 -18 16 -91 25 -112 13z m98 -27
c7 -12 -22 -41 -40 -41 -18 0 -28 17 -21 35 6 16 51 20 61 6z m-83 -26 c3 -13
1 -22 -3 -19 -9 5 -13 44 -5 44 2 0 6 -11 8 -25z"/>
<path d="M292 700 c-28 -26 -29 -73 -2 -100 11 -11 24 -20 30 -20 6 0 10 -4
10 -10 0 -5 -9 -10 -19 -10 -37 0 -51 -12 -51 -41 0 -46 33 -72 86 -67 42 3
56 -4 34 -17 -16 -10 -11 -41 10 -60 15 -14 29 -16 60 -11 36 6 40 4 40 -14 0
-28 26 -36 64 -21 17 7 38 13 46 13 10 0 15 9 15 26 1 15 4 37 8 48 9 24 -17
59 -35 48 -7 -5 -9 5 -4 29 10 53 -7 81 -46 73 -26 -5 -29 -3 -23 12 4 9 10
29 12 43 10 54 -66 83 -89 34 -15 -33 -28 -32 -28 3 0 57 -74 83 -118 42z m93
-53 c18 -63 53 -70 76 -16 11 28 13 29 28 15 14 -15 14 -20 0 -59 -23 -63 -7
-85 41 -55 27 17 34 5 23 -39 -12 -49 -7 -63 23 -63 26 0 29 -7 14 -30 -8 -12
-21 -4 -70 45 -48 47 -123 134 -167 194 -2 2 -5 2 -8 -1 -8 -8 90 -142 155
-211 33 -35 57 -67 53 -71 -14 -13 -32 -5 -35 17 -3 20 -8 22 -55 19 -57 -3
-74 10 -49 37 34 37 7 62 -54 51 -44 -8 -70 3 -70 30 0 14 8 20 32 22 47 4 49
33 4 74 -20 18 -36 37 -36 43 0 20 33 42 58 39 21 -2 29 -11 37 -41z"/>
<path d="M2277 702 c-10 -10 -17 -28 -17 -40 0 -31 -15 -35 -28 -7 -23 49 -99
20 -89 -34 2 -14 8 -34 12 -43 6 -15 3 -17 -23 -12 -39 8 -56 -20 -46 -73 5
-24 3 -34 -4 -29 -18 11 -44 -24 -36 -48 3 -12 7 -33 8 -48 1 -16 7 -26 16
-26 8 0 29 -6 46 -13 38 -15 64 -7 64 21 0 18 4 20 40 14 63 -10 102 35 65 76
-14 16 -12 17 34 12 40 -3 52 -1 70 17 12 12 21 34 21 50 0 29 -14 41 -51 41
-10 0 -19 5 -19 10 0 6 5 10 10 10 21 0 50 41 50 70 0 59 -85 95 -123 52z m87
-31 c21 -23 12 -47 -26 -67 -23 -12 -29 -21 -26 -42 2 -22 9 -28 36 -30 24 -3
32 -8 32 -23 0 -25 -35 -38 -76 -29 -54 12 -80 -15 -48 -51 25 -27 8 -40 -49
-37 -47 3 -52 1 -55 -19 -2 -13 -10 -23 -17 -23 -29 0 -24 21 14 55 37 34 127
146 166 208 32 50 1 27 -44 -32 -24 -32 -74 -90 -112 -127 -57 -56 -71 -66
-79 -54 -15 24 -12 30 16 30 26 0 27 1 20 55 -5 44 -3 55 8 55 8 0 18 -4 21
-10 9 -14 42 -12 48 3 2 6 -2 27 -9 46 -8 18 -14 42 -14 52 0 28 29 23 42 -6
17 -38 60 -31 69 11 3 17 9 36 13 42 11 18 51 14 70 -7z"/>
<path d="M682 473 c-17 -16 -42 -71 -42 -94 0 -4 8 -15 18 -25 9 -10 17 -21
17 -26 0 -12 12 -9 50 13 38 23 43 41 22 92 -21 49 -40 61 -65 40z m39 -34 c9
-17 8 -25 -4 -36 -19 -19 -37 -9 -37 21 0 40 23 49 41 15z m-8 -76 c-7 -2 -19
-2 -25 0 -7 3 -2 5 12 5 14 0 19 -2 13 -5z"/>
<path d="M1941 464 c-39 -50 -37 -124 4 -124 7 0 18 -7 25 -15 7 -8 17 -12 22
-9 5 3 7 9 4 12 -4 3 3 15 15 28 19 21 20 24 6 65 -8 24 -24 49 -35 57 -18 11
-22 10 -41 -14z m45 -30 c8 -32 -14 -50 -34 -30 -11 11 -11 18 -3 35 16 28 29
26 37 -5z m-3 -71 c-7 -2 -21 -2 -30 0 -10 3 -4 5 12 5 17 0 24 -2 18 -5z"/>
<path d="M862 338 c-7 -7 -12 -25 -12 -42 l0 -30 -28 27 c-33 32 -74 35 -102
7 -50 -50 -29 -115 40 -126 45 -7 50 -15 18 -29 -33 -15 -34 -49 -2 -74 35
-27 53 -27 98 4 l36 24 0 -29 c0 -53 58 -63 107 -17 20 18 23 18 29 3 13 -33
84 -6 84 32 0 7 15 12 37 12 38 0 36 15 -2 22 -12 2 -21 14 -26 34 -9 48 -18
57 -50 50 -23 -4 -29 -2 -29 12 0 49 -67 84 -88 46 -7 -13 -11 -9 -16 19 -4
20 -14 43 -22 52 -18 18 -55 20 -72 3z m56 -30 c7 -7 12 -29 12 -49 0 -21 7
-42 16 -50 14 -12 19 -10 39 15 27 34 40 29 49 -19 8 -38 30 -55 49 -36 18 18
27 13 27 -14 0 -31 -2 -30 -174 26 -65 22 -121 38 -123 36 -7 -7 138 -68 218
-90 75 -22 78 -24 64 -43 -14 -18 -16 -18 -26 -1 -14 24 -36 21 -71 -8 -41
-35 -64 -30 -60 13 5 45 -19 51 -66 18 -43 -30 -64 -32 -82 -11 -11 13 -10 18
6 30 10 8 22 15 27 15 11 0 8 35 -5 48 -7 7 -26 12 -44 12 -42 0 -60 23 -48
58 13 38 57 42 80 8 11 -18 25 -26 45 -26 27 0 29 3 29 40 0 41 14 52 38 28z"/>
<path d="M1737 338 c-10 -7 -21 -33 -25 -58 -7 -38 -9 -42 -16 -22 -15 45 -86
13 -86 -40 0 -14 -6 -16 -29 -12 -32 7 -41 -2 -50 -50 -5 -20 -14 -32 -26 -34
-35 -7 -41 -22 -9 -22 22 0 36 -8 52 -30 25 -33 66 -41 76 -14 6 15 9 15 29
-3 50 -46 107 -36 107 18 l0 31 31 -26 c37 -31 67 -33 103 -5 33 26 34 56 1
71 -35 16 -31 24 15 32 69 11 90 76 40 126 -28 28 -69 25 -102 -7 l-28 -27 0
30 c0 17 -5 35 -12 42 -16 16 -50 15 -71 0z m53 -58 c0 -36 2 -40 26 -40 16 0
34 10 46 26 27 34 69 30 82 -8 12 -35 -6 -58 -48 -58 -56 0 -78 -50 -31 -72
28 -13 30 -19 13 -36 -18 -18 -38 -15 -80 14 -47 33 -71 27 -66 -18 4 -43 -19
-48 -60 -13 -35 29 -57 32 -71 8 -9 -17 -11 -17 -27 -1 -10 10 -16 19 -13 21
2 1 39 13 82 25 77 22 221 82 214 89 -2 2 -58 -14 -123 -36 -172 -56 -174 -57
-174 -26 0 27 9 32 27 14 19 -19 41 -2 49 36 9 48 22 53 49 19 20 -25 25 -27
39 -15 9 7 16 28 16 46 0 46 9 65 31 65 15 0 19 -7 19 -40z"/>
<path d="M537 266 c-55 -50 -47 -69 34 -79 52 -7 79 11 79 51 0 11 5 24 10 27
15 9 2 25 -14 19 -8 -3 -17 -1 -21 5 -12 21 -51 11 -88 -23z m87 -12 c8 -22 7
-34 -3 -34 -5 0 -11 11 -13 25 -6 28 6 34 16 9z m-36 -22 c3 -19 -1 -22 -27
-22 -35 0 -42 22 -13 39 23 14 36 9 40 -17z"/>
<path d="M2045 290 c-3 -5 -16 -10 -28 -10 -16 0 -18 -3 -9 -12 7 -7 12 -22
12 -34 0 -39 25 -54 78 -47 82 10 90 29 35 79 -36 33 -76 44 -88 24z m18 -40
c-6 -22 -23 -38 -23 -21 0 17 12 41 20 41 5 0 6 -9 3 -20z m58 0 c30 -17 24
-40 -11 -40 -22 0 -30 5 -30 18 0 32 11 37 41 22z"/>
<path d="M1155 231 c17 -10 50 -39 74 -64 l43 -45 -28 -37 c-16 -20 -47 -48
-69 -61 -38 -24 -38 -25 -10 -19 17 3 51 26 76 51 44 43 46 44 62 26 16 -17
16 -20 -6 -39 -12 -11 -31 -25 -42 -31 -14 -8 -15 -11 -5 -12 8 0 30 9 49 21
l34 21 38 -21 c20 -12 43 -21 50 -21 8 0 6 5 -6 12 -11 6 -30 20 -42 31 -22
19 -22 22 -6 39 16 18 18 17 62 -26 25 -25 60 -48 76 -51 28 -6 27 -5 -11 19
-23 14 -54 42 -69 62 l-27 36 43 45 c24 25 58 54 74 64 28 18 29 19 7 19 -15
0 -46 -21 -83 -57 -56 -53 -61 -56 -76 -40 -16 15 -15 18 8 43 13 15 38 33 54
40 l30 13 -27 1 c-16 0 -41 -12 -60 -29 l-33 -29 -35 29 c-19 16 -46 29 -60
29 -25 -1 -25 -1 5 -14 17 -7 41 -25 54 -40 23 -25 24 -28 8 -43 -15 -16 -20
-13 -76 40 -37 36 -68 57 -83 57 -22 0 -21 -1 7 -19z m201 -98 c10 -15 10 -21
-3 -36 -15 -16 -17 -16 -35 0 -17 15 -17 17 -2 35 21 22 24 22 40 1z"/>
</g>
</svg>