<svg xmlns="http://www.w3.org/2000/svg" version="1.0" width="200.000000pt" height="200.000000pt" viewBox="0 0 200.000000 200.000000" preserveAspectRatio="xMidYMid meet">

<g transform="translate(0.000000,200.000000) scale(0.100000,-0.100000)" fill="#000000" stroke="none">
<path d="M850 1905 c-356 -56 -648 -318 -750 -676 -32 -112 -38 -306 -12 -429 122 -588 755 -910 1298 -660 256 118 442 337 514 606 32 119 38 303 12 424 -81 394 -400 690 -794 740 -103 13 -161 12 -268 -5z m329 -50 c330 -69 594 -320 682 -650 32 -117 32 -318 1 -434 -45 -166 -122 -300 -243 -418 -109 -107 -255 -190 -404 -229 -98 -26 -342 -26 -435 0 -258 71 -477 255 -586 491 -60 129 -77 211 -77 370 0 167 18 250 88 392 123 250 338 417 615 479 79 17 275 17 359 -1z"/>
<path d="M992 1829 c-33 -13 -27 -59 11 -77 38 -18 37 -46 -3 -39 -38 8 -49 -9 -16 -25 20 -8 32 -8 52 0 35 17 30 61 -8 80 -36 17 -38 46 -3 40 22 -5 44 7 34 16 -12 11 -47 13 -67 5z"/>
<path d="M828 1815 c-10 -10 17 -140 30 -139 6 1 26 2 42 3 20 1 30 6 30 17 0 12 -7 14 -29 9 -32 -7 -28 -14 -47 85 -5 28 -14 37 -26 25z"/>
<path d="M1100 1811 c0 -6 9 -11 21 -11 18 0 20 -4 13 -46 -10 -70 -10 -76 2 -81 7 -2 16 21 23 57 11 52 15 60 31 55 16 -5 38 10 28 20 -2 3 -30 7 -61 11 -40 5 -57 3 -57 -5z"/>
<path d="M1255 1778 c-39 -107 -44 -129 -28 -126 16 3 51 83 52 121 1 20 -17 23 -24 5z"/>
<path d="M690 1772 c0 -21 43 -132 51 -132 5 0 26 7 46 15 43 18 34 42 -10 26 -25 -10 -27 -8 -43 44 -10 30 -24 55 -31 55 -7 0 -13 -4 -13 -8z"/>
<path d="M1311 1714 c-37 -47 -22 -96 34 -120 47 -19 49 -19 68 21 16 33 16 35 -3 45 -27 14 -45 3 -29 -16 21 -26 -5 -40 -35 -20 -31 20 -33 49 -6 76 25 25 31 25 62 1 14 -12 29 -16 37 -12 20 13 -36 51 -75 51 -23 0 -38 -7 -53 -26z"/>
<path d="M556 1709 c-53 -42 -19 -129 51 -129 46 0 77 30 77 75 0 68 -72 98 -128 54z m92 -27 c19 -25 14 -50 -13 -68 -23 -15 -27 -15 -50 0 -31 20 -33 59 -4 80 23 16 47 12 67 -12z"/>
<path d="M1458 1612 l-45 -57 28 -22 c50 -42 85 -40 39 2 -22 20 -27 45 -8 45 6 0 20 -8 30 -17 13 -11 22 -13 29 -6 7 7 2 15 -16 27 -22 14 -24 20 -14 32 10 13 15 12 36 -8 15 -14 27 -18 33 -12 7 7 -3 21 -29 42 l-39 31 -44 -57z"/>
<path d="M913 1629 c-40 -5 -106 -22 -148 -38 -75 -29 -175 -86 -175 -100 0 -18 39 -41 70 -41 19 0 54 -7 77 -16 41 -16 47 -16 104 1 58 18 64 18 108 2 26 -9 74 -19 106 -23 73 -8 95 -19 95 -44 0 -20 -9 -20 -349 -20 l-350 0 -29 -52 c-47 -83 -73 -173 -79 -273 l-5 -90 33 -15 c39 -17 206 -21 217 -5 4 6 18 11 32 13 14 1 63 20 108 42 46 22 88 40 93 40 16 0 9 -36 -11 -57 -14 -15 -16 -23 -7 -26 7 -3 2 -6 -11 -6 -13 -1 -20 -5 -17 -11 3 -5 1 -10 -5 -10 -12 0 -93 -51 -98 -63 -2 -4 -9 -4 -15 0 -7 4 -8 0 -3 -13 5 -14 4 -16 -5 -7 -9 9 -22 7 -56 -8 -25 -10 -50 -19 -56 -19 -7 0 -30 -5 -51 -11 -46 -13 -37 -22 37 -39 60 -13 173 2 230 31 54 28 108 84 101 107 -2 9 1 7 8 -6 9 -19 9 -32 -1 -65 -7 -23 -13 -50 -14 -59 -1 -9 -4 -16 -7 -15 -3 0 -25 -18 -50 -41 -25 -23 -74 -54 -109 -69 -60 -26 -62 -28 -36 -35 47 -12 172 20 241 63 19 11 39 17 45 14 14 -9 3 -51 -23 -87 -11 -17 -17 -36 -13 -46 3 -9 3 -13 -1 -9 -4 4 -14 1 -23 -6 -14 -11 -14 -10 -2 5 18 24 14 23 -59 -18 l-65 -35 50 6 c28 4 63 13 79 21 16 8 35 14 43 14 8 0 11 4 8 10 -3 5 0 7 8 5 7 -3 30 6 51 20 56 38 69 30 47 -29 -11 -26 -103 -101 -136 -109 -11 -2 1 -5 27 -6 26 0 50 4 53 9 4 6 11 7 17 4 8 -5 9 -1 5 12 -6 16 -5 17 5 4 14 -16 62 -15 53 1 -3 5 1 6 9 3 8 -3 28 2 45 10 17 9 32 16 33 14 6 -3 94 55 121 80 52 49 44 55 -145 107 -160 43 -228 76 -228 110 0 13 5 27 10 30 6 4 8 11 4 16 -3 5 -9 7 -13 5 -4 -3 -8 1 -8 9 0 13 3 13 17 0 17 -16 35 -20 26 -7 -2 4 3 8 12 8 9 1 26 5 37 9 11 5 3 -7 -18 -27 l-39 -35 36 -22 c20 -13 97 -38 172 -57 171 -43 224 -65 224 -94 0 -32 -28 -75 -62 -94 -16 -10 -25 -22 -22 -28 4 -7 2 -8 -5 -4 -6 4 -24 0 -39 -10 -27 -18 -31 -20 -53 -23 -5 0 -8 -5 -5 -9 2 -4 -3 -8 -12 -9 -9 0 -55 -11 -102 -23 -82 -22 -173 -24 -223 -5 -28 11 -20 19 51 48 39 15 81 41 98 59 16 18 22 27 14 21 -9 -7 -49 -24 -90 -39 -59 -22 -92 -28 -157 -28 -55 0 -80 -3 -75 -10 3 -6 -2 -5 -11 3 -9 7 -17 19 -16 25 0 6 3 6 6 -2 4 -11 7 -10 17 1 6 8 39 24 74 37 35 12 76 35 92 50 16 15 31 26 32 25 2 -2 11 8 21 21 l18 24 -36 -17 c-19 -9 -34 -22 -31 -28 2 -7 -2 -12 -10 -12 -7 0 -11 4 -8 9 3 4 -10 4 -28 0 -56 -12 -230 -7 -263 8 l-30 13 70 17 c87 22 126 40 118 54 -3 6 -2 8 2 3 14 -13 80 37 123 93 l26 34 -39 -29 c-22 -17 -46 -37 -53 -45 -8 -8 -11 -10 -8 -4 3 7 -13 7 -51 -1 -36 -7 -78 -8 -117 -3 -33 5 -66 6 -73 4 -6 -3 -13 0 -15 5 -2 6 -15 12 -30 12 -14 1 -24 5 -22 8 2 3 -8 11 -22 18 -36 16 -23 27 41 34 31 3 62 10 68 15 7 5 29 15 50 21 20 7 37 17 37 22 0 6 5 7 10 4 13 -8 102 43 150 85 l35 30 -84 -40 c-45 -21 -103 -42 -127 -46 -25 -3 -41 -10 -38 -16 4 -6 -1 -8 -12 -5 -11 3 -41 8 -69 12 -27 4 -65 13 -84 21 -19 8 -36 12 -38 10 -8 -8 18 -116 28 -116 6 0 7 -5 4 -10 -4 -6 12 -48 34 -94 49 -102 184 -254 208 -235 11 9 12 9 8 -4 -4 -8 -1 -18 6 -23 8 -5 10 -3 5 7 -4 8 -1 5 8 -5 13 -17 18 -17 33 -5 16 13 17 12 5 -3 -12 -15 -9 -19 18 -33 18 -9 38 -14 46 -11 8 3 12 2 9 -4 -3 -5 18 -16 47 -25 62 -18 82 -19 72 -3 -4 7 -3 8 5 4 6 -4 9 -11 6 -15 -8 -14 110 -20 188 -10 101 13 217 51 217 71 0 5 4 7 8 4 12 -7 109 58 160 107 56 55 116 142 107 156 -3 7 -1 10 6 9 19 -4 66 126 79 219 12 85 3 216 -21 291 l-11 34 -63 -4 c-35 -2 -62 -1 -60 1 3 2 -7 12 -20 23 -27 21 -85 17 -110 -8 -11 -11 -60 -14 -234 -14 -135 0 -221 4 -221 10 0 17 38 30 92 30 29 0 87 9 128 21 48 13 88 18 113 15 42 -7 85 10 129 52 19 17 37 24 60 24 74 -3 91 -2 96 3 3 3 -19 30 -48 60 l-54 55 -212 0 c-170 0 -214 3 -223 14 -14 17 -8 21 44 31 21 3 57 16 79 27 31 16 52 19 91 15 79 -8 85 7 13 31 -104 34 -198 43 -305 31z m-208 -338 c3 -5 2 -12 -3 -15 -5 -3 -9 1 -9 9 0 17 3 19 12 6z m-135 -25 c0 -2 -7 -7 -16 -10 -8 -3 -12 -2 -9 4 6 10 25 14 25 6z m66 -14 c6 -4 14 -19 18 -34 4 -18 11 -25 20 -22 8 3 17 0 21 -5 3 -6 11 -8 17 -5 7 4 8 2 4 -5 -6 -9 -11 -9 -22 0 -13 11 -13 9 -3 -14 7 -15 17 -27 22 -27 6 0 7 -3 4 -7 -9 -8 13 -34 23 -28 4 3 7 -3 6 -13 0 -9 4 -16 11 -15 7 2 10 -3 7 -11 -3 -8 -1 -17 5 -21 19 -11 12 -35 -13 -45 -13 -5 -27 -13 -30 -19 -3 -5 -18 -6 -33 -2 -30 8 -40 32 -42 94 -1 20 -5 37 -10 37 -9 0 -47 -90 -43 -103 1 -5 -1 -6 -5 -4 -5 3 -19 1 -32 -4 -16 -7 -21 -14 -17 -26 4 -10 4 -14 0 -10 -8 8 -34 -11 -34 -25 0 -5 5 -6 12 -2 6 4 9 3 6 -2 -8 -12 -138 -2 -139 11 -1 5 13 18 32 28 18 11 39 26 46 35 7 10 13 13 13 8 0 -9 70 40 82 58 4 6 8 20 8 31 0 16 -3 14 -18 -10 -22 -35 -108 -85 -146 -85 -14 0 -26 4 -26 8 0 4 26 27 59 49 61 44 129 141 115 166 -4 7 -4 9 1 5 4 -4 14 -1 22 7 16 16 41 19 59 7z m760 -67 c-11 -8 -14 -15 -8 -15 7 0 12 -15 13 -32 l1 -33 16 37 c19 42 32 49 32 17 0 -36 22 -109 31 -103 5 3 6 -1 3 -9 -3 -8 -1 -18 5 -22 12 -7 14 9 5 54 -4 17 -11 28 -16 25 -10 -7 2 19 23 46 9 13 10 12 5 -3 -3 -10 -1 -27 5 -38 9 -17 13 -18 27 -8 14 11 15 11 5 -1 -7 -8 -13 -18 -13 -23 0 -4 6 -5 13 -1 6 4 9 4 5 0 -3 -4 0 -23 8 -41 7 -19 19 -76 25 -127 10 -86 10 -98 -10 -152 -11 -32 -18 -63 -14 -69 3 -6 1 -7 -4 -4 -16 10 -24 -35 -10 -52 11 -14 10 -14 -5 -2 -16 12 -22 9 -19 -12 0 -4 -5 -6 -11 -5 -7 2 -12 -3 -10 -10 1 -8 -2 -11 -6 -8 -5 3 -18 -4 -28 -15 -10 -11 -34 -27 -53 -35 -19 -8 -31 -17 -28 -20 4 -4 -9 -19 -28 -34 -19 -15 -32 -30 -28 -34 3 -3 1 -6 -6 -6 -8 0 -11 6 -7 17 4 9 1 21 -6 26 -10 7 -9 8 3 4 11 -4 23 10 43 50 14 30 23 59 20 65 -4 6 -3 8 3 5 12 -8 26 20 17 34 -3 5 -1 9 5 9 6 0 7 7 4 17 -4 11 -3 14 5 9 9 -5 12 15 11 76 -1 46 -4 73 -6 61 -5 -24 -18 -30 -28 -13 -9 15 -23 12 -44 -9 -19 -19 -20 -19 -30 12 l-11 31 -50 -49 c-41 -41 -47 -51 -37 -64 10 -14 10 -14 -3 -4 -13 10 -22 8 -45 -7 -17 -11 -38 -20 -49 -20 -15 0 -12 8 20 48 21 26 47 56 56 66 10 11 20 28 24 38 3 10 9 18 14 18 9 0 54 110 65 159 4 20 14 35 26 38 10 3 16 9 13 14 -3 5 -1 9 4 9 13 0 33 50 26 62 -5 7 -2 8 6 3 10 -6 12 -4 7 8 -4 10 0 20 11 26 25 15 30 12 8 -4z m-110 -24 c-4 -5 -1 -12 4 -14 6 -3 5 -4 -2 -3 -15 3 -23 26 -8 26 6 0 9 -4 6 -9z m-16 -45 c0 -10 -9 -34 -21 -52 -27 -44 -18 -45 10 -1 l21 32 -3 -35 c-2 -19 -13 -55 -25 -79 -27 -54 -27 -57 -4 -40 15 13 16 12 3 -3 -7 -10 -16 -16 -20 -13 -4 2 -16 -10 -27 -28 -19 -32 -19 -32 -22 -7 -4 25 -4 25 -21 -7 -14 -27 -93 -115 -133 -149 -22 -18 -41 -5 -21 14 16 16 15 17 -15 20 -42 4 -40 13 9 36 47 21 156 152 153 182 -1 7 3 12 9 11 12 -2 47 64 40 76 -2 4 1 7 8 7 7 0 9 3 6 6 -3 4 5 15 18 26 15 12 22 25 19 36 -5 14 -4 15 5 2 6 -8 11 -23 11 -34z m-425 -21 c10 -32 24 -59 36 -65 17 -10 18 -8 10 14 -11 26 -4 66 10 66 5 0 14 -12 19 -26 13 -34 37 -57 51 -48 8 4 9 3 5 -5 -9 -13 52 -76 83 -86 24 -7 17 -41 -12 -57 -18 -9 -25 -6 -50 23 -16 19 -27 26 -23 16 3 -10 6 -23 6 -28 0 -6 5 -7 12 -3 6 4 8 3 5 -4 -11 -16 -50 -2 -74 27 -12 14 -22 20 -23 14 0 -7 4 -13 9 -13 5 0 7 -9 4 -20 -3 -11 -9 -20 -14 -20 -11 0 -35 38 -44 70 -13 47 -37 90 -46 84 -5 -3 -9 -2 -8 3 1 4 -1 16 -6 26 -7 17 17 87 30 87 2 0 12 -25 20 -55z m210 -7 c5 4 5 1 1 -6 -4 -7 -12 -10 -17 -7 -5 4 -9 2 -9 -3 0 -9 42 -20 97 -25 12 -1 21 -5 20 -8 -1 -4 3 -6 8 -5 6 0 9 7 8 15 -1 10 2 10 10 1 9 -9 5 -17 -18 -36 -33 -27 -51 -30 -58 -11 -3 6 -6 2 -6 -10 -1 -18 -6 -21 -35 -20 -19 1 -32 5 -30 9 2 3 -1 8 -8 10 -17 6 -18 60 -1 76 7 8 10 19 6 25 -5 8 -2 8 9 0 8 -7 19 -9 23 -5z m-682 -30 c-4 -7 -8 -19 -9 -26 -2 -8 -5 -17 -8 -20 -9 -8 -2 30 7 46 5 6 10 12 13 12 3 0 2 -6 -3 -12z m4 -64 c-3 -3 -12 -4 -19 -1 -8 3 -5 6 6 6 11 1 17 -2 13 -5z m273 -20 c0 -2 -9 0 -20 6 -11 6 -20 13 -20 16 0 2 9 0 20 -6 11 -6 20 -13 20 -16z m325 -104 c4 -6 3 -10 -2 -9 -19 3 -27 -2 -15 -10 11 -7 11 -9 -1 -14 -16 -6 -17 9 -4 31 10 15 14 15 22 2z m215 -40 c0 -5 -9 -8 -19 -7 -15 1 -17 4 -9 14 11 13 28 9 28 -7z m-92 -66 c-12 -12 -17 -13 -23 -3 -5 8 -4 10 4 5 6 -4 14 0 17 9 4 9 9 13 12 10 3 -3 -1 -13 -10 -21z m-441 0 c-3 -3 -12 -4 -19 -1 -8 3 -5 6 6 6 11 1 17 -2 13 -5z m468 -14 c-3 -5 -16 -15 -28 -21 l-22 -12 20 21 c21 22 41 30 30 12z m150 -19 c-9 -8 -36 -10 -30 -2 2 4 11 8 20 8 8 0 13 -3 10 -6z m-70 -29 c-3 -3 -11 0 -18 7 -9 10 -8 11 6 5 10 -3 15 -9 12 -12z m-501 -8 c3 -8 2 -12 -4 -9 -6 3 -10 10 -10 16 0 14 7 11 14 -7z m86 -38 c0 -2 -7 -7 -16 -10 -8 -3 -12 -2 -9 4 6 10 25 14 25 6z m365 -64 c-3 -3 -11 0 -18 7 -9 10 -8 11 6 5 10 -3 15 -9 12 -12z m333 -37 c-3 -3 -9 2 -12 12 -6 14 -5 15 5 6 7 -7 10 -15 7 -18z m-58 -19 c0 -2 -8 -10 -17 -17 -16 -13 -17 -12 -4 4 13 16 21 21 21 13z m-37 -48 c-4 -7 -8 -16 -9 -20 -1 -5 -2 -11 -3 -14 0 -3 -6 -2 -12 1 -7 5 -4 14 7 26 19 22 29 25 17 7z"/>
<path d="M1026 1012 c-3 -6 -1 -14 5 -17 15 -10 25 3 12 16 -7 7 -13 7 -17 1z"/>
<path d="M418 1603 l-27 -26 47 -54 c30 -35 49 -50 56 -43 6 6 3 16 -8 29 -25 27 -13 42 23 28 15 -5 37 -7 47 -3 16 7 14 10 -16 21 -24 8 -34 17 -32 29 9 48 -49 60 -90 19z m56 -26 c-7 -20 -29 -22 -40 -5 -9 14 27 41 38 30 5 -5 6 -16 2 -25z"/>
<path d="M1561 1518 c-34 -28 -48 -45 -41 -52 6 -6 23 1 50 23 22 17 40 30 40 28 0 -2 -9 -29 -19 -60 -15 -44 -17 -59 -7 -72 10 -15 17 -12 64 26 29 23 52 48 52 56 0 19 -8 16 -51 -18 -21 -17 -39 -29 -39 -26 0 2 9 29 19 59 14 41 16 59 8 67 -16 16 -20 15 -76 -31z"/>
<path d="M321 1501 c-35 -44 -37 -51 -16 -51 8 0 15 5 15 10 0 18 26 10 60 -20 35 -29 60 -38 60 -21 0 5 -19 25 -42 45 -39 32 -42 37 -30 56 23 38 -14 23 -47 -19z"/>
<path d="M543 354 c-36 -61 -40 -74 -20 -74 7 0 21 16 31 35 11 19 23 35 28 35 4 0 8 -27 8 -59 0 -45 4 -60 16 -65 9 -4 18 -5 19 -4 14 16 65 108 65 117 0 22 -21 10 -41 -24 -12 -19 -24 -35 -28 -35 -4 0 -8 26 -9 57 -2 49 -12 73 -32 73 -3 0 -20 -25 -37 -56z"/>
<path d="M1403 403 c-7 -2 -13 -20 -13 -39 0 -38 -6 -41 -38 -18 -21 14 -42 12 -42 -5 0 -4 20 -17 44 -28 24 -12 47 -31 51 -42 7 -23 35 -29 35 -8 0 6 -7 21 -15 32 -11 14 -13 32 -9 67 4 26 5 48 3 47 -2 0 -10 -3 -16 -6z"/>
<path d="M1253 323 c-9 -3 -13 -30 -13 -84 0 -66 2 -77 15 -73 8 4 15 14 15 23 0 26 45 44 70 29 10 -7 22 -9 27 -5 10 11 -99 116 -114 110z m47 -74 c0 -5 -7 -9 -15 -9 -9 0 -15 9 -15 21 0 18 2 19 15 9 8 -7 15 -16 15 -21z"/>
<path d="M727 313 c-18 -5 -47 -51 -47 -76 0 -23 38 -64 65 -71 83 -21 131 100 55 139 -29 15 -41 16 -73 8z m67 -39 c21 -20 20 -43 -1 -66 -20 -22 -41 -23 -65 -1 -22 20 -23 41 -1 65 20 22 46 23 67 2z"/>
<path d="M1175 278 c-2 -13 -6 -36 -7 -53 l-3 -30 -23 43 c-12 23 -29 42 -36 42 -14 0 -26 -29 -26 -67 0 -35 -13 -27 -32 17 -9 22 -23 40 -32 40 -12 0 -9 -14 16 -70 17 -38 37 -70 44 -70 8 0 16 19 20 50 4 28 10 50 14 50 4 0 15 -18 25 -40 27 -59 51 -54 59 13 8 73 8 97 -4 97 -5 0 -12 -10 -15 -22z"/>
<path d="M870 258 c0 -14 -3 -46 -6 -72 -6 -38 -4 -46 10 -46 10 0 16 9 16 25 0 35 23 31 37 -5 6 -17 19 -30 27 -30 15 0 15 3 2 28 -14 26 -13 30 5 45 39 34 18 67 -45 74 -44 5 -46 4 -46 -19z m71 -8 c5 0 9 -7 9 -15 0 -9 -9 -15 -25 -15 -19 0 -25 5 -25 21 0 15 4 19 16 15 9 -3 20 -6 25 -6z"/>
</g>
</svg>