<svg version="1.0" xmlns="http://www.w3.org/2000/svg"
 width="500.000000pt" height="500.000000pt" viewBox="0 0 500.000000 500.000000"
 preserveAspectRatio="xMidYMid meet">

<g transform="translate(0.000000,500.000000) scale(0.100000,-0.100000)"
fill="#000000" stroke="none">
<path d="M2457 3585 c-9 -7 -14 -15 -11 -18 3 -3 -4 -16 -16 -29 l-21 -23 -23
26 c-31 36 -48 40 -77 18 -13 -10 -18 -19 -11 -19 10 0 9 -7 -3 -30 -11 -22
-12 -30 -3 -30 9 0 9 -3 0 -12 -18 -18 -15 -38 6 -32 13 5 14 4 3 -4 -7 -5
-22 -7 -33 -4 -11 2 -16 8 -11 11 12 9 15 41 4 41 -5 0 -13 -5 -16 -11 -5 -6
-12 -4 -20 8 -7 10 -11 21 -8 26 4 7 -46 -1 -55 -9 -5 -4 30 -57 49 -74 20
-19 40 -76 33 -95 -4 -9 -19 -15 -39 -15 -18 0 -38 -6 -44 -14 -18 -21 -11
-674 8 -702 25 -37 53 -47 162 -53 91 -5 111 -9 131 -28 l23 -22 28 25 c23 20
39 24 91 24 105 0 154 10 181 38 l25 25 -2 351 -3 351 -40 3 c-40 4 -59 18
-47 36 3 6 7 21 8 35 2 13 12 34 23 45 11 12 29 31 41 44 l20 22 -26 11 c-19
7 -29 7 -34 -1 -4 -6 -11 -10 -16 -9 -35 6 -45 -2 -40 -31 2 -16 0 -30 -4 -30
-5 0 -12 20 -16 45 -3 25 -10 42 -15 39 -5 -3 -7 -10 -4 -15 4 -5 1 -9 -4 -9
-16 0 -13 16 4 30 13 10 12 14 -2 28 -20 20 -59 21 -55 1 2 -8 0 -11 -4 -6
-13 12 -42 -23 -37 -44 4 -14 1 -18 -10 -14 -8 4 -13 14 -10 24 2 10 -3 25
-12 34 -9 9 -14 20 -11 25 9 15 -40 30 -57 17z m16 -35 c3 -11 1 -18 -4 -14
-5 3 -9 12 -9 20 0 20 7 17 13 -6z m-133 -28 c0 -15 -2 -15 -10 -2 -13 20 -13
33 0 25 6 -3 10 -14 10 -23z m290 19 c0 -6 -4 -13 -10 -16 -5 -3 -10 1 -10 9
0 9 5 16 10 16 6 0 10 -4 10 -9z m-176 -10 c3 -5 -1 -11 -9 -14 -9 -4 -12 -1
-8 9 6 16 10 17 17 5z m71 -1 c3 -5 -1 -10 -10 -10 -9 0 -13 5 -10 10 3 6 8
10 10 10 2 0 7 -4 10 -10z m-140 -10 c3 -5 -1 -10 -10 -10 -9 0 -13 5 -10 10
3 6 8 10 10 10 2 0 7 -4 10 -10z m205 0 c0 -5 -8 -10 -17 -10 -15 0 -16 2 -3
10 19 12 20 12 20 0z m-171 -31 c-16 -10 -23 -4 -14 10 3 6 11 8 17 5 6 -4 5
-9 -3 -15z m-219 -15 c0 -8 -4 -12 -10 -9 -5 3 -10 10 -10 16 0 5 5 9 10 9 6
0 10 -7 10 -16z m574 1 c-4 -8 -10 -12 -15 -9 -11 6 -2 24 11 24 5 0 7 -7 4
-15z m-319 -5 c3 -5 1 -10 -4 -10 -6 0 -11 5 -11 10 0 6 2 10 4 10 3 0 8 -4
11 -10z m70 0 c3 -5 -1 -10 -10 -10 -9 0 -13 5 -10 10 3 6 8 10 10 10 2 0 7
-4 10 -10z m55 -6 c0 -8 -5 -12 -10 -9 -6 4 -8 11 -5 16 9 14 15 11 15 -7z
m160 7 c0 -5 -9 -7 -20 -4 -11 3 -20 7 -20 9 0 2 9 4 20 4 11 0 20 -4 20 -9z
m-340 -11 c0 -5 -5 -10 -11 -10 -5 0 -7 5 -4 10 3 6 8 10 11 10 2 0 4 -4 4
-10z m104 -11 c5 -4 -2 -6 -17 -6 -19 2 -23 5 -15 15 6 7 14 9 17 5 3 -4 10
-11 15 -14z m-140 2 c3 -5 -1 -11 -9 -14 -9 -4 -12 -1 -8 9 6 16 10 17 17 5z
m70 1 c3 -5 -1 -9 -9 -9 -8 0 -12 4 -9 9 3 4 7 8 9 8 2 0 6 -4 9 -8z m216 -2
c0 -5 -5 -10 -11 -10 -5 0 -7 5 -4 10 3 6 8 10 11 10 2 0 4 -4 4 -10z m-35
-10 c3 -6 -1 -7 -9 -4 -18 7 -21 14 -7 14 6 0 13 -4 16 -10z m-228 -26 c-3 -3
-12 -4 -19 -1 -8 3 -5 6 6 6 11 1 17 -2 13 -5z m33 -29 c0 -8 -4 -15 -10 -15
-5 0 -10 7 -10 15 0 8 5 15 10 15 6 0 10 -7 10 -15z m140 -4 c0 -4 -9 -7 -19
-8 -13 -1 -18 3 -15 12 5 13 34 10 34 -4z m-233 -13 c-3 -8 -6 -5 -6 6 -1 11
2 17 5 13 3 -3 4 -12 1 -19z m118 12 c3 -5 1 -10 -4 -10 -6 0 -11 5 -11 10 0
6 2 10 4 10 3 0 8 -4 11 -10z m200 1 c3 -5 1 -12 -5 -16 -5 -3 -10 1 -10 9 0
18 6 21 15 7z m-340 -10 c9 -16 -9 -20 -23 -5 -10 12 -10 14 2 14 8 0 17 -4
21 -9z m180 -21 c-51 -10 -189 -20 -183 -14 8 7 119 22 173 22 l50 0 -40 -8z
m98 -7 c-7 -2 -21 -2 -30 0 -10 3 -4 5 12 5 17 0 24 -2 18 -5z m207 -391 c0
-407 13 -374 -145 -382 -87 -4 -109 -9 -135 -28 l-31 -23 -26 20 c-22 18 -40
21 -117 21 -109 0 -149 18 -160 70 -3 18 -6 174 -6 346 l0 314 310 0 310 0 0
-338z"/>
<path d="M2476 3245 c-4 -22 -9 -44 -10 -49 -1 -4 -11 10 -21 33 -29 60 -49
49 -25 -13 13 -34 0 -33 -35 4 -38 39 -53 39 -23 -1 56 -75 55 -71 8 -54 -49
17 -60 18 -60 6 0 -5 21 -18 48 -29 l47 -21 -35 -1 c-19 0 -46 -3 -60 -7 -21
-6 -16 -9 30 -18 l55 -11 -42 -19 c-24 -10 -43 -22 -43 -27 0 -10 61 2 78 15
25 20 21 0 -8 -39 -41 -55 -37 -63 10 -20 40 36 62 48 43 24 -16 -20 -33 -78
-23 -78 5 0 20 19 34 43 l26 42 0 -52 c0 -29 4 -53 10 -53 5 0 12 24 16 53 l7
52 19 -42 c10 -24 23 -43 27 -43 9 0 -1 59 -13 79 -15 23 10 10 46 -26 48 -47
50 -30 3 25 l-35 41 32 -11 c90 -28 103 -21 31 16 l-48 25 40 1 c65 1 74 16
14 24 l-52 7 42 21 c22 11 41 24 41 29 0 12 -1 12 -43 -6 -58 -24 -64 -18 -24
23 46 47 48 63 5 30 -56 -42 -58 -42 -47 -6 5 18 9 41 9 51 0 28 -18 10 -25
-26 -12 -53 -18 -54 -30 -2 l-12 50 -7 -40z m41 -90 c27 -19 37 -55 15 -55
-14 0 -15 -2 -2 -10 12 -7 12 -12 -4 -29 -40 -44 -106 -15 -106 45 0 53 53 80
97 49z"/>
<path d="M2440 3125 c0 -8 7 -15 15 -15 8 0 15 7 15 15 0 8 -7 15 -15 15 -8 0
-15 -7 -15 -15z"/>
<path d="M2490 3125 c0 -8 6 -15 14 -15 8 0 16 7 20 15 4 10 -1 15 -14 15 -11
0 -20 -7 -20 -15z"/>
<path d="M2455 3090 c-3 -6 1 -18 10 -27 15 -14 18 -14 32 0 8 8 12 20 9 26
-9 14 -43 14 -51 1z"/>
<path d="M2307 2865 c-13 -27 -17 -62 -17 -140 l0 -104 83 1 c45 0 92 0 105 0
12 -1 39 0 60 1 20 0 57 -1 82 -3 l45 -5 3 121 c3 147 -1 153 -98 153 -90 1
-96 1 -175 7 l-71 5 -17 -36z m155 7 c6 -6 11 -109 9 -182 -1 -24 -3 -25 -73
-25 l-73 0 3 105 c2 66 8 108 15 113 13 9 108 0 119 -11z m166 -99 l-3 -106
-68 -1 -67 -1 0 101 c0 55 3 104 7 107 3 4 35 7 70 7 l64 0 -3 -107z m19 -55
c-2 -24 -4 -5 -4 42 0 47 2 66 4 43 2 -24 2 -62 0 -85z"/>
<path d="M2428 2863 c7 -3 16 -2 19 1 4 3 -2 6 -13 5 -11 0 -14 -3 -6 -6z"/>
<path d="M2350 2840 c0 -5 4 -10 9 -10 6 0 13 5 16 10 3 6 -1 10 -9 10 -9 0
-16 -4 -16 -10z"/>
<path d="M2355 2797 c0 -12 4 -28 8 -34 5 -8 3 -13 -4 -13 -7 0 -4 -6 7 -14
26 -19 30 -12 10 18 -8 14 -13 31 -10 39 3 8 1 17 -3 20 -5 3 -9 -4 -8 -16z"/>
<path d="M2400 2805 c7 -8 16 -13 20 -10 5 3 11 -2 13 -10 3 -11 4 -10 3 2 -1
10 -8 17 -14 16 -7 -2 -12 2 -12 7 0 6 -5 10 -11 10 -8 0 -8 -5 1 -15z"/>
<path d="M2451 2804 c0 -11 3 -14 6 -6 3 7 2 16 -1 19 -3 4 -6 -2 -5 -13z"/>
<path d="M2386 2782 c-3 -5 1 -9 9 -9 8 0 12 4 9 9 -3 4 -7 8 -9 8 -2 0 -6 -4
-9 -8z"/>
<path d="M2452 2750 c0 -14 2 -19 5 -12 2 6 2 18 0 25 -3 6 -5 1 -5 -13z"/>
<path d="M2350 2720 c0 -5 5 -10 11 -10 5 0 7 5 4 10 -3 6 -8 10 -11 10 -2 0
-4 -4 -4 -10z"/>
<path d="M2400 2713 c0 -17 19 -37 27 -29 4 5 2 11 -5 13 -6 3 -10 9 -6 14 3
5 0 9 -5 9 -6 0 -11 -3 -11 -7z"/>
<path d="M2577 2841 c6 -7 9 -20 6 -27 -3 -8 -3 -14 0 -14 14 0 14 30 -1 41
-14 11 -15 11 -5 0z"/>
<path d="M2504 2814 c-1 -13 2 -24 7 -24 5 0 9 5 9 11 0 5 5 7 10 4 6 -3 10
-2 10 2 0 5 -8 13 -17 19 -15 9 -18 7 -19 -12z"/>
<path d="M2596 2783 c-4 -9 -3 -20 2 -25 6 -6 10 1 10 16 0 30 -3 32 -12 9z"/>
<path d="M2515 2730 c3 -5 8 -10 11 -10 2 0 4 5 4 10 0 6 -5 10 -11 10 -5 0
-7 -4 -4 -10z"/>
<path d="M2506 2702 c-3 -6 -1 -14 5 -17 14 -9 20 -2 10 14 -6 8 -11 9 -15 3z"/>
<path d="M2230 3490 c0 -5 5 -10 10 -10 6 0 10 5 10 10 0 6 -4 10 -10 10 -5 0
-10 -4 -10 -10z"/>
<path d="M2869 2597 c8 -11 5 -16 -14 -25 -14 -6 -25 -17 -25 -24 0 -10 2 -10
8 0 7 10 15 10 37 2 47 -18 15 -27 -102 -29 -62 -1 -119 -7 -138 -15 -29 -13
-33 -19 -37 -61 l-3 -47 38 5 c36 5 38 4 33 -16 -3 -12 -6 -28 -6 -34 0 -7 -6
-13 -14 -13 -9 0 -12 8 -8 25 2 15 0 25 -7 25 -6 0 -11 -13 -11 -30 0 -20 -5
-30 -15 -30 -13 0 -13 3 -3 20 11 17 10 22 -2 30 -20 13 -33 1 -27 -26 4 -21
0 -24 -24 -24 -20 0 -29 5 -29 16 0 13 3 14 14 5 11 -9 15 -7 19 8 3 14 -1 19
-19 19 -18 0 -24 -6 -24 -24 0 -12 -5 -26 -12 -30 -7 -4 -8 -3 -4 4 4 8 0 12
-11 12 -15 0 -16 2 -3 10 13 9 13 10 0 11 -10 0 -8 3 5 9 19 8 18 9 -4 9 -20
1 -23 -3 -19 -27 l4 -27 -73 6 c-39 3 -79 11 -87 19 -11 9 -16 9 -16 1 0 -24
57 -35 190 -35 165 -1 192 8 200 69 4 32 10 40 30 45 19 5 24 12 22 31 -1 13
-8 28 -14 34 -8 7 -9 5 -5 -7 8 -23 -14 -29 -35 -10 -16 14 -18 13 -18 -1 0
-11 -8 -17 -25 -17 -34 0 -32 16 5 35 20 10 59 15 127 15 111 0 143 6 143 26
0 8 -4 14 -10 14 -5 0 -10 11 -10 24 0 13 -7 27 -16 30 -13 5 -14 4 -5 -7z
m-142 -150 c3 -4 -5 -7 -20 -7 -14 0 -28 4 -31 8 -5 9 41 8 51 -1z m-60 -14
c5 -15 -36 -28 -49 -15 -6 6 -7 15 -3 22 9 14 47 9 52 -7z m-67 -74 c0 -5 -4
-9 -10 -9 -5 0 -10 7 -10 16 0 8 5 12 10 9 6 -3 10 -10 10 -16z"/>
<path d="M2077 2593 c-4 -3 -7 -14 -7 -24 0 -9 -9 -19 -20 -22 -12 -3 -20 -14
-20 -26 0 -18 2 -20 14 -9 10 9 11 15 2 20 -7 5 -3 8 9 8 11 0 31 3 44 7 20 5
23 3 18 -10 -4 -10 -2 -17 3 -17 14 0 12 54 -2 68 -13 13 -31 16 -41 5z m34
-17 c-1 -16 -31 -15 -31 1 0 8 7 13 16 11 8 -2 15 -7 15 -12z"/>
<path d="M2173 2523 c9 -2 23 -2 30 0 6 3 -1 5 -18 5 -16 0 -22 -2 -12 -5z"/>
<path d="M2275 2512 c71 -19 97 -53 47 -60 -16 -3 -22 2 -22 17 0 28 -20 37
-27 12 -3 -12 -10 -21 -15 -21 -6 0 -8 9 -5 19 3 15 0 19 -14 18 -13 -1 -19
-9 -19 -25 0 -20 4 -23 32 -20 17 2 33 -1 35 -7 2 -6 -37 -10 -104 -9 l-108 1
100 -7 c131 -9 143 -13 137 -51 -3 -17 0 -29 7 -29 6 0 11 11 11 25 0 21 5 25
31 25 28 0 30 -2 18 -16 -8 -10 -15 -12 -17 -5 -6 18 -22 12 -22 -8 0 -13 6
-18 18 -17 9 2 20 -2 24 -8 4 -6 8 1 8 17 0 16 5 27 14 27 9 0 12 -8 8 -27 -4
-22 -2 -25 12 -20 10 4 20 7 22 7 10 0 3 30 -8 32 -7 1 19 4 57 8 l70 6 -71 2
c-39 1 -86 5 -103 8 -27 6 -31 11 -31 39 0 40 -26 65 -76 70 -34 4 -35 4 -9
-3z m75 -88 c0 -11 -5 -14 -16 -10 -9 3 -20 6 -25 6 -5 0 -9 5 -9 10 0 6 11
10 25 10 16 0 25 -6 25 -16z"/>
<path d="M2897 2483 c-5 -24 -12 -33 -27 -33 -15 0 -20 7 -20 24 0 22 -4 24
-40 23 -34 -1 -40 -5 -40 -23 0 -19 5 -21 35 -19 19 1 35 -2 35 -7 0 -4 -21
-9 -47 -9 -27 -1 -40 -3 -29 -6 10 -3 43 -2 72 2 56 7 79 27 72 63 -2 10 -7 4
-11 -15z m-87 -3 c0 -5 -4 -10 -10 -10 -5 0 -10 5 -10 10 0 6 5 10 10 10 6 0
10 -4 10 -10z"/>
<path d="M2061 2478 c1 -17 2 -19 6 -5 6 24 21 21 26 -5 4 -20 4 -19 6 5 1 21
-4 27 -19 27 -14 0 -20 -6 -19 -22z"/>
<path d="M2113 2484 c-3 -8 -1 -20 6 -27 8 -8 11 -4 11 16 0 30 -7 35 -17 11z"/>
<path d="M2147 2480 c-3 -13 0 -20 9 -20 8 0 14 9 14 20 0 11 -4 20 -9 20 -5
0 -11 -9 -14 -20z"/>
<path d="M2180 2487 c0 -8 7 -18 16 -21 11 -4 14 -1 12 11 -4 21 -28 30 -28
10z"/>
<path d="M2740 2488 c0 -7 5 -20 10 -28 8 -12 10 -9 10 13 0 15 -4 27 -10 27
-5 0 -10 -6 -10 -12z"/>
<path d="M2860 2480 c0 -11 5 -20 10 -20 6 0 10 9 10 20 0 11 -4 20 -10 20 -5
0 -10 -9 -10 -20z"/>
<path d="M2040 2461 c0 -10 19 -25 25 -20 1 2 -3 10 -11 17 -8 7 -14 8 -14 3z"/>
<path d="M682 1794 c-10 -5 -13 -78 -11 -364 l1 -358 112 -6 c165 -9 1510 -20
2231 -18 666 1 1290 13 1301 25 7 6 -9 415 -23 609 l-6 86 -116 1 c-64 1 -271
6 -461 12 -382 11 -3007 22 -3028 13z m1722 -64 c14 -5 26 -13 26 -17 0 -5
-18 -23 -40 -41 -28 -23 -46 -31 -60 -27 -27 8 -25 20 8 61 30 38 30 38 66 24z
m626 -227 l135 -141 3 134 3 134 39 0 40 0 0 -209 c0 -153 -3 -212 -12 -217
-8 -5 -63 45 -155 141 l-142 148 -3 -139 -3 -139 -30 0 -30 0 -3 218 c-2 174
0 218 10 215 7 -2 74 -67 148 -145z m1033 -59 c49 -114 86 -213 83 -221 -4 -9
-17 -13 -37 -11 -28 3 -34 10 -53 55 l-21 53 -75 0 -75 0 -21 -53 c-19 -45
-25 -52 -53 -55 -19 -2 -33 2 -36 10 -3 8 31 97 76 198 44 102 85 195 90 208
4 12 14 22 21 22 8 0 52 -90 101 -206z m-2598 172 c60 -28 77 -46 106 -110 58
-132 -32 -282 -177 -294 -194 -16 -311 203 -186 348 68 80 163 101 257 56z
m1302 12 c45 -19 63 -39 63 -69 0 -40 -12 -43 -67 -13 -35 19 -58 24 -85 21
-80 -11 -135 -83 -123 -163 16 -108 135 -158 225 -94 36 26 50 19 50 -25 0
-29 -5 -36 -43 -54 -180 -87 -371 102 -288 285 43 94 178 151 268 112z m951
-8 c39 -18 42 -22 42 -60 0 -45 -10 -49 -47 -20 -84 66 -210 10 -221 -98 -6
-66 17 -112 69 -142 49 -27 106 -23 150 9 40 30 49 26 49 -20 0 -38 -2 -41
-46 -61 -67 -29 -149 -22 -207 18 -52 36 -97 119 -97 178 1 151 170 259 308
196z m-2629 -16 c17 -14 36 -43 42 -64 21 -70 -36 -147 -115 -154 l-39 -4 2
-80 c2 -80 2 -81 -23 -88 -56 -14 -56 -12 -56 211 l0 205 79 0 c71 0 83 -3
110 -26z m606 -144 l0 -165 50 -5 c50 -5 50 -5 50 -40 l0 -35 -85 0 -85 0 -3
208 -2 208 37 -3 38 -3 0 -165z m213 -37 l-3 -208 -23 -3 c-49 -7 -52 6 -52
213 0 105 3 195 7 198 3 4 21 7 40 7 l33 0 -2 -207z m290 175 c-3 -31 -5 -33
-48 -36 l-45 -3 3 -152 c4 -189 2 -199 -41 -195 l-32 3 -3 173 -2 172 -45 0
c-45 0 -45 0 -45 35 l0 35 131 0 130 0 -3 -32z m262 -3 l0 -35 -77 0 -78 0 0
-37 0 -38 75 -5 c74 -5 75 -5 78 -34 5 -39 -11 -47 -88 -44 l-64 1 1 -58 1
-58 73 -1 74 -1 3 -38 3 -38 -113 3 -113 3 -3 208 -2 207 115 0 115 0 0 -35z
m918 -172 l-3 -208 -35 0 -35 0 -3 208 -2 207 40 0 40 0 -2 -207z"/>
<path d="M3942 1450 c-19 -44 -19 -45 -1 -48 11 -2 28 -2 38 0 18 3 18 4 1 48
l-18 45 -20 -45z"/>
<path d="M1311 1552 c-100 -50 -106 -186 -12 -249 91 -61 214 9 214 121 0 56
-28 102 -78 126 -51 25 -80 25 -124 2z"/>
<path d="M978 1510 c4 -47 6 -50 31 -50 34 0 51 17 51 52 0 30 -23 48 -62 48
-21 0 -23 -3 -20 -50z"/>
</g>
</svg>